<svg id="verifier_avis_impots" xmlns="http://www.w3.org/2000/svg" width="48" height="48" viewBox="0 0 50 50" aria-hidden="true"><path d="M26.014 15.595h-8.337c-.49 0-.785-.373-.785-.84 0-.373.294-.746.785-.746h8.337c.49 0 .883.372.883.745 0 .467-.392.84-.883.84z"></path><path d="M31.605 19.7H17.677c-.49 0-.785-.374-.785-.84 0-.373.294-.746.785-.746h13.928c.393 0 .785.373.785.746 0 .467-.392.84-.785.84z"></path><path d="M31.605 23.71H17.677c-.49 0-.785-.278-.785-.745 0-.373.294-.746.785-.746h13.928c.393 0 .785.372.785.745 0 .467-.392.746-.785.746z"></path><path d="M23.464 27.816h-5.787c-.49 0-.785-.28-.785-.746 0-.373.294-.746.785-.746h5.787c.49 0 .785.373.785.746 0 .467-.296.746-.786.746z"></path><path d="M35.136 28.57c-4.708 0-8.533 3.546-8.533 8.024s3.825 8.117 8.533 8.117c4.708 0 8.534-3.638 8.534-8.116s-3.826-8.023-8.534-8.023zm0 17.727c-5.59 0-10.103-4.385-10.103-9.703s4.512-9.61 10.103-9.61c5.59 0 10.2 4.292 10.2 9.61s-4.61 9.703-10.2 9.703"></path><path d="M26.49 41.607h-15.5c-.882 0-1.666-.654-1.666-1.586V6.995c0-.84.784-1.493 1.667-1.493h26.975c.883 0 1.57.654 1.57 1.494v20.992h-3.237V8.58H12.56v29.948h13.93v3.08z"></path><path d="M33.47 42.192c-.394 0-.786-.187-1.178-.467l-2.65-2.705c-.685-.56-.587-1.586.1-2.146.588-.56 1.667-.56 2.256.093l1.373 1.306 4.807-5.504c.59-.654 1.57-.748 2.256-.188.687.56.785 1.493.294 2.24l-5.983 6.81c-.294.373-.687.56-1.177.56h-.098z"></path></svg>