<svg id="Cadastre" xmlns="http://www.w3.org/2000/svg" width="48" height="48" viewBox="0 0 50 50" aria-hidden="true"><path d="M18.97 37.565l9.612 5.43V11.322L18.97 5.875v31.69zm13.5-26.242v31.67l9.613-5.428V5.875l-9.613 5.45zm-27.22.054v31.67l9.698-5.482V5.875L5.25 11.38zM3.347 48.04c-.322 0-.646-.07-.94-.233-.594-.325-.963-.923-.963-1.575V10.346c0-.635.353-1.23.93-1.558l13.503-7.634c.33-.2.706-.27 1.08-.254.357-.017.752.053 1.085.254L30.523 8.21l12.49-7.056c.585-.344 1.314-.344 1.91-.02.596.308.964.923.964 1.558v35.886c0 .65-.353 1.23-.93 1.558l-13.19 7.472-.26.182c-.396.197-.847.288-1.274.217-.234-.037-.462-.09-.67-.217l-.277-.182-12.33-6.982L4.32 47.792c-.3.163-.635.25-.975.25z"></path></svg>