<svg xmlns="http://www.w3.org/2000/svg" aria-hidden="true" viewBox="0 0 50 50" width="35" height="45">
            <path fill="#fff" d="M 12.92 23.53 V 36.87 h 22.5 V 23.53 Z m 22.5 15.83 H 12.92 a 2.5 2.5 0 0 1 -2.5 -2.5 V 23.53 a 2.5 2.5 0 0 1 2.5 -2.5 h 22.5 a 2.5 2.5 0 0 1 2.5 2.5 V 36.87 a 2.5 2.5 0 0 1 -2.5 2.5"></path>
            <path fill="#fff" d="M 32.19 23.22 A 1.25 1.25 0 0 1 30.94 22 V 18.53 a 6.77 6.77 0 1 0 -13.54 0 V 22 a 1.25 1.25 0 0 1 -2.5 0 V 18.53 a 9.27 9.27 0 1 1 18.54 0 V 22 a 1.25 1.25 0 0 1 -1.25 1.25"></path>
            <path fill="#fff" d="M 24.17 25.93 a 2.6 2.6 0 0 0 -1.25 4.87 v 2.93 h 2.5 V 30.81 a 2.6 2.6 0 0 0 -1.25 -4.87"></path>
          </svg>