<svg xmlns="http://www.w3.org/2000/svg" width="48" height="48" viewBox="0 0 50 50" aria-hidden="true"><path id="path6768" d="M28.7,2.67a12.78,12.78,0,0,0,0,25.55,12.78,12.78,0,0,0,9-21.81A12.69,12.69,0,0,0,28.7,2.67Zm0,28.16a15.39,15.39,0,1,1,10.88-4.52A15.32,15.32,0,0,1,28.7,30.83"></path><path id="path6770" d="M19.61,24.42l.07.06a12.74,12.74,0,0,0,18,0l.07,0a22.41,22.41,0,0,0-6.45-1.78,1.3,1.3,0,0,1-.88-.5,1.38,1.38,0,0,1-.26-1l.26-1.78a1.41,1.41,0,0,1,.59-.92,1,1,0,0,0,.4-.4l.19-1.62a1.32,1.32,0,0,1,.9-1.09h0l.09-.93-.06,0A1.26,1.26,0,0,1,32,13.15l.19-1.68a2.52,2.52,0,0,0-.49-2.23,4.41,4.41,0,0,0-3-1,4.32,4.32,0,0,0-3,1,2.51,2.51,0,0,0-.55,2.29l.18,1.66a1.27,1.27,0,0,1-.56,1.22l-.07,0,.11.93h0a1.28,1.28,0,0,1,.89,1.09c.08.56.13,1.11.2,1.67a1.54,1.54,0,0,0,.4.35,1.31,1.31,0,0,1,.59.92l.25,1.77a1.34,1.34,0,0,1-.25,1,1.32,1.32,0,0,1-.89.5,22.07,22.07,0,0,0-6.44,1.78Zm9.09,6.41h0a15.32,15.32,0,0,1-10.88-4.51c-.38-.39-.73-.77-1.06-1.17a1.33,1.33,0,0,1-.13-1.48,3.62,3.62,0,0,1,1.4-1.4,24.44,24.44,0,0,1,6.36-2,3.06,3.06,0,0,1-1.05-1.88c0-.17,0-.34-.05-.52a1.77,1.77,0,0,1-1-1.4l-.27-2.55a1.82,1.82,0,0,1,.59-1.51l-.07-.65A5,5,0,0,1,23.94,7.3,6.81,6.81,0,0,1,28.7,5.6a6.87,6.87,0,0,1,4.79,1.73,5,5,0,0,1,1.32,4.39l-.07.67a1.78,1.78,0,0,1,.58,1.51l-.26,2.55a1.73,1.73,0,0,1-1,1.4L34,18.4a2.94,2.94,0,0,1-1,1.85,24.37,24.37,0,0,1,6.3,2,3.48,3.48,0,0,1,1.44,1.43,1.3,1.3,0,0,1-.12,1.47,14.28,14.28,0,0,1-1.05,1.16A15.32,15.32,0,0,1,28.7,30.83"></path><path d="M30.18,30.76l-5,12.54H8a3.38,3.38,0,0,1,0-6.75H25.69a1.44,1.44,0,0,0,.45-.09l.13-.06a1.51,1.51,0,0,0,.26-.18l.11-.09a1.63,1.63,0,0,0,.23-.35l0,0h0L29,30.82H28.7a15.66,15.66,0,0,1-2.48-.22l-1.4,3.33H8a6,6,0,0,0-1.55.21l5.17-12.89A3.07,3.07,0,0,1,14,19.83a15,15,0,0,1-.52-2.59,5.22,5.22,0,0,0-4.25,2.9c0,.06,0,.12,0,.18L2.52,36.81a1.27,1.27,0,0,0,0,.72A6,6,0,0,0,2,39.92H2a6,6,0,0,0,6,6H25.69l.08,0a1,1,0,0,0,.24,0,1.31,1.31,0,0,0,1.22-.81l6-15A15.1,15.1,0,0,1,30.18,30.76Z"></path><path d="M24.79,38.05H7a.66.66,0,1,0,0,1.31H24.79a.66.66,0,0,0,0-1.31Z"></path><path d="M24.79,40.48H7a.66.66,0,0,0-.66.65.67.67,0,0,0,.66.66H24.79a.66.66,0,0,0,.65-.66A.65.65,0,0,0,24.79,40.48Z"></path><rect x="36.98" y="29.72" width="6.27" height="18.81" rx="3" transform="translate(-13.07 21.48) rotate(-25.92)"></rect><rect x="35.81" y="26.17" width="3.13" height="14.63" rx="1.5" transform="translate(-10.88 19.71) rotate(-25.92)"></rect><path d="M17.82,26.32a15.68,15.68,0,0,1-3.14-4.56h-1l-2.56,6.76,9.77.15A15.44,15.44,0,0,1,17.82,26.32Z"></path></svg>