<svg id="controle_fiscal" xmlns="http://www.w3.org/2000/svg" width="48" height="48" viewBox="0 0 50 50" aria-hidden="true"><path d="M5.092 18.634c-.53 0-1.32.46-1.32 1.113V44.94c0 .652.79 1.34 1.32 1.34h15.58v-.003c.52 0 .947-.535.947-1.188V34.29c0-.668-.43-1.19-.95-1.19-.53 0-.94.523-.94 1.19V43.9H6.036V21.015h4.69"></path><path d="M25.71 28.073c-.64.234-1.3.427-1.98.558l.304.566L14.4 37.47l-1.64-.272h-.003l.407-2.02 7.384-6.344s-1.16-.66-2.065-.917l-6.688 5.547c-.19.165-.32.418-.38.704l-.743 3.757c-.07.332-.023.677.13.963.15.272.386.464.66.5l3.05.5.123.012.002-.002c.188 0 .376-.072.527-.214l10.71-9.192c.207-.178.348-.454.396-.76.045-.31-.01-.632-.15-.894z"></path><path d="M14.045 36.847c-.152 0-.304-.084-.39-.25-.15-.274-.093-.64.125-.83l8.357-7.183c.216-.18.51-.11.66.153.142.272.085.642-.123.832l-8.367 7.18c-.087.07-.17.095-.266.095z"></path><path d="M22.627 5.973c-5.717 0-10.372 4.657-10.374 10.38 0 5.717 4.653 10.372 10.374 10.372 5.72 0 10.377-4.655 10.377-10.374C33 10.63 28.347 5.976 22.627 5.976zm0 23.355c-7.156 0-12.976-5.82-12.98-12.976.004-7.16 5.824-12.983 12.98-12.985 7.156 0 12.98 5.824 12.98 12.982 0 7.155-5.823 12.976-12.98 12.976"></path><path d="M16.446 13.168l-1.203-.5c1.828-4.378 6.872-6.458 11.25-4.634l-.502 1.203C22.28 7.69 18 9.452 16.45 13.167"></path><path d="M41.402 38.07c-.46 0-.923-.185-1.276-.554L30.068 26.99c-.704-.737-.704-1.933 0-2.67.707-.738 1.85-.738 2.555 0l10.055 10.523c.707.737.707 1.933 0 2.673-.352.37-.815.554-1.276.554"></path><path d="M11.424 15.363c-.462.922-.076 1.697-.21 2.767l10.42-.19v8.08c0 .83.57 1.505 1.295 1.505.712 0 1.297-.677 1.297-1.504v-9.583c0-.826-.586-1.26-1.298-1.238z"></path><path d="M10.018 18.528c-2.12.318-6.246-.6-6.246 1.22V44.94c0 .652.79 1.34 1.32 1.34h15.58v-.003c.52 0 .947-.535.947-1.188V34.29c0-.668-.43-1.19-.95-1.19-.53 0-1.157.735-1.153 1.402l.053 9.396H6.037V21.015h4.69"></path></svg>