<svg xmlns="http://www.w3.org/2000/svg" width="48" height="48" viewBox="0 0 50 50" aria-hidden="true"><path d="M2.015 1.06c-1.036 0-1.87.917-1.87 2.05v4.987c0 5.644 3.91 10.303 8.873 10.864C9.52 26.665 14.872 32.9 21.7 33.98v4.107h-3.84c-1.06 0-1.87.92-1.87 2.048 0 1.132.81 2.05 1.87 2.05h11.398c1.036 0 1.843-.918 1.843-2.05 0-1.127-.806-2.048-1.842-2.048h-3.843V34.06c7.054-.854 12.626-7.213 13.14-15.1 4.964-.56 8.872-5.22 8.872-10.863V3.11c0-1.133-.833-2.05-1.87-2.05H2.012zM3.86 5.156h5.105v9.648C6.08 14.24 3.86 11.456 3.86 8.097v-2.94zm8.82 0h22.238V17.78c0 6.774-4.977 12.284-11.118 12.284-6.14 0-11.118-5.512-11.118-12.283V5.156zm25.928 0h5.104v2.94c0 3.36-2.203 6.15-5.104 6.71V5.153zM9.04 43.375c-1.034 0-1.845.92-1.845 2.052 0 1.128.81 2.044 1.846 2.044h29.013c1.035 0 1.87-.915 1.87-2.043 0-1.13-.833-2.052-1.87-2.052H9.04z"></path></svg>