<svg id="Calque_1" data-name="Calque 1" xmlns="http://www.w3.org/2000/svg" viewBox="0 0 50 51.37" aria-hidden="true"><title>Plan de travail 1</title><path d="M33.37,16.74a2.95,2.95,0,1,0,3,3A3,3,0,0,0,33.37,16.74Z"></path><path d="M19.43,13.46a3,3,0,1,0,3,2.95A3,3,0,0,0,19.43,13.46Z"></path><path d="M25.85,33.81a3.05,3.05,0,0,1-.61.46l2.34,3.55a.41.41,0,0,0,.57.15.42.42,0,0,0,.08-.56Z"></path><path d="M22.71,34.7h-.15a4.76,4.76,0,0,1-1-.28L25,39.53a.39.39,0,1,0,.65-.41Z"></path><path d="M28.56.44C15.09-1.93,3.13,5.46.74,19.19l-.09.5c-1.12,6.44,0,12.31,3,17l-.06,0C.89,38.06-.62,40.54.24,42.25s3.75,2,6.44.65a10.12,10.12,0,0,0,1.68-1.09,26.41,26.41,0,0,0,11.87,5c1.1.19,2.17.31,3.22.39l-5.64-8.54A1.25,1.25,0,0,1,18.08,37a1.23,1.23,0,0,1,1.68.42l3,4.6a.4.4,0,0,0,.56.15.41.41,0,0,0,.15-.59l-4.46-6.73a1.24,1.24,0,0,1,.27-1.71,1,1,0,0,1,.56-.17,3.65,3.65,0,0,1-.36-2.43v-.09a3.54,3.54,0,0,1,4.31-2.9,3.45,3.45,0,0,1,3.11,3.7l5.58,8.44,0-2.83a1.45,1.45,0,0,1,1.38-1.63,1.71,1.71,0,0,1,1.54,1.69s.18,4.9.27,7a7.65,7.65,0,0,1-.08,1.35c6.62-3,11.26-9.14,12.71-17.47l.09-.5C50.91,13.25,42.29,2.86,28.56.44ZM19.43,21.25a4.84,4.84,0,1,1,4.85-4.84A4.84,4.84,0,0,1,19.43,21.25Zm13.94,3.28a4.84,4.84,0,1,1,4.85-4.84A4.84,4.84,0,0,1,33.37,24.53Z"></path><path d="M29,51.37a6.46,6.46,0,0,1-5.2-3.06l-6.32-9.58a1.74,1.74,0,0,1,.4-2.4,1.63,1.63,0,0,1,1.24-.23,1.82,1.82,0,0,1,.56.22l-1-1.45a1.75,1.75,0,0,1,.4-2.41,1.63,1.63,0,0,1,1.24-.23,1.72,1.72,0,0,1,.45.16A1.74,1.74,0,0,1,21.24,30a1.62,1.62,0,0,1,1.24-.23,1.77,1.77,0,0,1,1.14.79l.46.69a1.65,1.65,0,0,1,.7-1.55A1.63,1.63,0,0,1,26,29.51a1.85,1.85,0,0,1,1.14.79l4.95,7.49v-1.2a2.17,2.17,0,0,1,.61-1.6,1.77,1.77,0,0,1,1.3-.52,2.21,2.21,0,0,1,2,2.17h0s.18,4.9.27,7a7,7,0,0,1-3.59,6.5A6.74,6.74,0,0,1,29,51.37ZM18.76,37.06a.64.64,0,0,0-.33.1.76.76,0,0,0-.13,1l6.32,9.56c.92,1.35,3.52,4.21,7.55,1.54a6,6,0,0,0,3.14-5.61c-.09-2.1-.27-7-.27-7a1.21,1.21,0,0,0-1-1.2.73.73,0,0,0-.55.23,1.19,1.19,0,0,0-.32.88l0,4.49L26.33,30.85a.8.8,0,0,0-.51-.36.61.61,0,0,0-.48.09.74.74,0,0,0-.13,1l3.52,5.31a.91.91,0,0,1-.23,1.25.84.84,0,0,1-.69.12.85.85,0,0,1-.58-.43l-4.45-6.71a.8.8,0,0,0-.51-.35.59.59,0,0,0-.47.08.74.74,0,0,0-.13,1l4.46,6.73a.9.9,0,0,1,.16.64.92.92,0,0,1-.39.62.88.88,0,0,1-.69.12.9.9,0,0,1-.58-.44l-4-6a.8.8,0,0,0-.51-.36.61.61,0,0,0-.48.08.75.75,0,0,0-.13,1L24,41.05a.88.88,0,0,1,.13.69.93.93,0,0,1-.43.6.9.9,0,0,1-.67.11.94.94,0,0,1-.59-.44l-3-4.58a.82.82,0,0,0-.51-.35Zm4.41,4.54Zm.12-.11Zm2-2.29,0,0Zm2.58-1.74h0Z"></path></svg>