<svg xmlns="http://www.w3.org/2000/svg" width="48" height="48" viewBox="0 0 50 50" aria-hidden="true"><path d="M33.13,22.24H14.4a.78.78,0,0,0-.81.78V32.3c.36.15.93.36,1.6.57V23.81H32.34v6.12a9.34,9.34,0,0,1,1.23.64l.37.25V23A.79.79,0,0,0,33.13,22.24Z"></path><path d="M22,34.05a3.56,3.56,0,0,0,.41-.3H18.51a18,18,0,0,0,2.29.36A8,8,0,0,0,22,34.05Z"></path><path d="M44.39,11.68,39.29.91A1.63,1.63,0,0,0,37.82,0H8.93A1.62,1.62,0,0,0,7.44,1L3.15,11.77a1.62,1.62,0,0,0-.09.57,6.8,6.8,0,0,0,4.4,6.31v9.43a9.28,9.28,0,0,1,1.06.51l0,0,0,0c.71.47,1.42,1,2.09,1.54V19.06a7.06,7.06,0,0,0,3.9-1.68h0a7,7,0,0,0,9.2,0,7,7,0,0,0,9.22,0,7,7,0,0,0,3.9,1.68V33.75h-.68c0,.11.06.21.08.3a1.24,1.24,0,0,0,.31.64,6,6,0,0,0,1,.3,3.31,3.31,0,0,1,2,1.27,1.29,1.29,0,0,0,.09.16,1.55,1.55,0,0,0,.46-1.09V18.64a6.79,6.79,0,0,0,4.4-6.3A1.72,1.72,0,0,0,44.39,11.68ZM10,3.14H36.81L37.66,5H9.3ZM37.6,16a3.65,3.65,0,0,1-3.2-1.85,1.64,1.64,0,0,0-1.4-.79,1.6,1.6,0,0,0-1.4.79,3.71,3.71,0,0,1-6.42,0,1.69,1.69,0,0,0-2.78,0A3.7,3.7,0,0,1,19.18,16,3.66,3.66,0,0,1,16,14.13a1.71,1.71,0,0,0-2.8,0,3.72,3.72,0,0,1-6.92-1.51L8.68,6.53H38.41l2.89,6.13A3.68,3.68,0,0,1,37.6,16Z"></path><path d="M44.8,36.49l-.62,9-4.28.2.59-9,4.31-.21Zm.67,10.74a1.12,1.12,0,0,0,.84-.91L47,35.48a.88.88,0,0,0-1-.86l-6.47.3a1.33,1.33,0,0,0-.8.31,1,1,0,0,0-.37.66l-.72,10.83a.9.9,0,0,0,1,.88l6.49-.32a1.06,1.06,0,0,0,.31-.05"></path><path d="M40.26,38.88a4.79,4.79,0,0,0-.69-2.62,3.31,3.31,0,0,0-2-1.27,6,6,0,0,1-1-.3,1.24,1.24,0,0,1-.31-.64,3.82,3.82,0,0,0-.56-1.36,6.71,6.71,0,0,0-2.17-2.12,23.8,23.8,0,0,0-5.29-2,8.45,8.45,0,0,0-1.5-.31,2.79,2.79,0,0,1-.66-.13,5.85,5.85,0,0,0-.87-.27,1.71,1.71,0,0,1-.57-.28A5.72,5.72,0,0,1,22.74,26c-.35-.5-.67-1-1-1.44a2.24,2.24,0,0,0-.71-.59,1.39,1.39,0,0,0-.63-.14h0a1.41,1.41,0,0,0-.67.16A3.31,3.31,0,0,0,18.55,25a3.81,3.81,0,0,0-.5,2.28A4.16,4.16,0,0,0,19.57,30a11.68,11.68,0,0,0,1.5,1.16c.46.31,1.22.71,1.93,1.09l.55.3-.07.11A5.86,5.86,0,0,1,22,34.05a8,8,0,0,1-1.23.06,20.39,20.39,0,0,1-2.6-.42,30.37,30.37,0,0,1-4.68-1.42c-1.11-.57-3-2.39-4.93-3.64l0,0,0,0a8.87,8.87,0,0,0-1.08-.52A2.15,2.15,0,0,0,6.14,28h0a3.2,3.2,0,0,0-.77.35l-.07,0a6.78,6.78,0,0,0-1.07-.09,2.23,2.23,0,0,0-1.65.48,2.42,2.42,0,0,0-.64,2.55,2.22,2.22,0,0,0,1.23,1.27,7.57,7.57,0,0,0,.65.41c.07.1,0,.22,0,.81a1.13,1.13,0,0,0,.43,1.05,6.78,6.78,0,0,0,.53.54,7.18,7.18,0,0,1,.76.79,12.35,12.35,0,0,1,.59,1.5v.07a1.46,1.46,0,0,0,.09.43,4.14,4.14,0,0,0,.32.74c.28.52.67,1.15,1.11,1.8a21.21,21.21,0,0,0,1.43,1.86,4.73,4.73,0,0,0,1.51,1.3,3.91,3.91,0,0,0,1.89.47l.34-.05a5.67,5.67,0,0,0,1.34,1.63,5.06,5.06,0,0,0,.53.35l0,0a1,1,0,0,0,.26.22,1.05,1.05,0,0,0,.27.12,2.61,2.61,0,0,0,.36.08c.24,0,.55.07.91.1.74.07,1.72.13,2.76.17a42.57,42.57,0,0,0,5.46,0,4.81,4.81,0,0,0,1.8-.48c.3-.19,0-.1.44-.17.77-.12,2.65.08,4.13-.13s2.26-.79,3.14-.8a7,7,0,0,1,1.52.61,4.6,4.6,0,0,0,1.22.42,2.39,2.39,0,0,0,1.56-.26,3.21,3.21,0,0,0,1.42-2.38c.15-.85.14-1.7.21-2.35A19.85,19.85,0,0,0,40.26,38.88ZM5.66,33.55s0,0,0,0h0s0,0,0,.08S5.66,33.56,5.66,33.55ZM16.29,45.3h0s0,0,0,.06Zm21.93-4.06c-.07.79-.07,1.59-.18,2.21s-.26.9-.5,1c-.08,0-.11.06-.28,0a3.41,3.41,0,0,1-.72-.26,4.9,4.9,0,0,0-2.35-.79c-1.54,0-2.41.68-3.39.82s-2.81-.08-4.17.13a3.23,3.23,0,0,0-1.13.42c-.06,0-.14.1-1,.22a48.06,48.06,0,0,1-5.15,0c-1,0-2-.1-2.66-.16l-.71-.09-.22-.16a2.33,2.33,0,0,1-.41-.26,4.13,4.13,0,0,1-1.17-1.67l-.38-.85-.86.35a1.86,1.86,0,0,1-.56.19,2,2,0,0,1-.95-.29,5,5,0,0,1-.9-.83A20,20,0,0,1,9.2,39.6a17.46,17.46,0,0,1-1-1.61s0-.05,0-.08h0L8,37.27a12.35,12.35,0,0,0-.79-2A4.78,4.78,0,0,0,6.05,34l-.31-.31a2.41,2.41,0,0,0-.39-1.81,3.09,3.09,0,0,0-1.21-.93c-.34-.21-.47-.42-.4-.24-.12-.35-.12-.32.07-.49-.12.11.1,0,.41,0a6.16,6.16,0,0,1,.86.08h.08A2,2,0,0,0,6.24,30a3.6,3.6,0,0,1,.36-.18l.17.05a8.27,8.27,0,0,1,.8.4C9.21,31.34,11,33.14,12.67,34h0a28.92,28.92,0,0,0,5.07,1.55,19.24,19.24,0,0,0,2.88.46A3.65,3.65,0,0,0,23,35.69a7.13,7.13,0,0,0,2-1.84,7.51,7.51,0,0,0,.44-.65l2.21.16-2.17-1.89a.64.64,0,0,0-.18-.12l-.12-.08-.33-.17-.94-.5c-.7-.38-1.5-.82-1.76-1a9.34,9.34,0,0,1-1.26-1A2.75,2.75,0,0,1,20,27.18,1.74,1.74,0,0,1,20.17,26a1.15,1.15,0,0,1,.14-.17c.22.27.51.7.86,1.21a7.4,7.4,0,0,0,2.42,2.06,3.57,3.57,0,0,0,1.12.53c.3.09.47.12.69.21a4.25,4.25,0,0,0,1.12.25,8.22,8.22,0,0,1,1.22.25,30.3,30.3,0,0,1,4.8,1.8,4.45,4.45,0,0,1,1.63,1.61,2.75,2.75,0,0,1,.28.77A3.32,3.32,0,0,0,35.22,36a3.26,3.26,0,0,0,1.84.83c.49.13.75.24.92.49A3.51,3.51,0,0,1,38.34,39,17.39,17.39,0,0,1,38.22,41.24Z"></path><path d="M5.64,13.5s0,0,0,.08l0,0s0,0,0-.05ZM16.29,25.3s0,0,0,.06l0-.06Zm.05.17a.67.67,0,0,1,0,.25A1,1,0,0,0,16.34,25.47Z"></path></svg>