<svg id="fps" xmlns="http://www.w3.org/2000/svg" width="48" height="48" viewBox="0 0 50 50" aria-hidden="true"><path d="M34.41.822v.004h.103V.822h-.103z"></path><path d="M24.302 2.39h.002l.004.003c-.28 0-.51.278-.51.618v4.85c-2.43.038-4.78.13-4.908.263l-2.844 6.95-5.42-.045-9.403 6.79c-.632.34-.905.972-.678 1.533.225.576.907.978 1.67.976l1.325-.002c-.064.176-.104.363-.104.563V35.21l1.522-3.624c.306-.636.726-1 1.215-1.195v-5.503c0-.202-.04-.394-.106-.57l9.617-.024v5.92h1.265c.164-.004.32.02.48.035v-9.43c0-.233-.025-.45-.062-.66h2.684c1.062 1.03 2.6 1.675 4.313 1.675.106 0 .21-.003.31-.01 1.503-.032 2.976-.666 4-1.656l3.324-.01c-.017.162-.043.318-.043.494v4.487c.305-.1.9-.275 1.554-.407l.08-.497 8.812-.022c-.008.07-.034.134-.034.207v1.88c.3.145 1.635 1.192 2.71 2.486l.02-4.366c0-.075-.032-.14-.042-.21h.23c.767-.002 1.854-.168 2.08-.744.23-.56.36-1.424-.27-1.768l-7.76-6.645-6.73-.308-3.17-6.73c-.12-.13-2.31-.174-4.625-.16V5.19h3.234v-.555h2.714V2.42h-3.994v.554h-1.96c-.017-.322-.232-.585-.504-.585zm4.12 7.536l.004.002h-.004l3.71 8.368h-2.245c.155-.42.245-.916.246-1.43l-.12-1.02c-.527-2.18-2.71-3.835-5.37-3.942-.093-.003-.19-.006-.288-.006-.31 0-.612.02-.91.06-2.746.38-4.844 2.43-4.844 4.904 0 .18.017.358.037.533-.022.033.07.497.23.936l-1.94-.03 3.266-8.26 8.23-.11v-.003zm-4.05 3.215h.003c.06 0 .123 0 .184.004 1.82.073 3.34 1.33 3.71 2.99l.09.798c0 2.03-1.676 3.688-3.78 3.79-.07.006-.145.01-.216.01-2.06 0-3.756-1.486-3.97-3.392-.014-.132-.02-.267-.02-.403 0-1.89 1.45-3.453 3.353-3.743.21-.033.425-.05.643-.05zM34 17.694l3.47.01 4.496 3.878h-8.372v-.93c0-.174-.026-.33-.045-.493h.09c.35 0 .66-.36.76-.883.106-.51-.023-1.085-.313-1.396L34 17.692zm-19.095.16l-.014.027c-.287.31-.412.886-.31 1.395.103.523.41.883.758.883h.407c-.04.206-.063.424-.063.66v.762h-9.05l5.486-3.703 2.787-.026z"></path><path d="M42.37 26.298c-.085-.04-.105-.025 0 .09v-.09z"></path><path d="M31.958 25.136c-.24.08-.315.114 0 .02v-.02z"></path><path d="M23.99 13.75h.003c-.015 0-.027.62-.027 1.372 0 .766.01 1.364.027 1.364h.1c-.07.027-.127.2-.127.427 0 .25.063.447.14.447h3.45c.08 0 .144-.193.144-.445 0-.245-.068-.448-.147-.448H24.68c.016-.017.03-.59.03-1.347 0-.754-.012-1.37-.03-1.37h-.69z"></path><path d="M20.197 23.45v4.388h3.926V23.45h-3.926zm.697.6h2.53v3.727h-2.53V24.05z"></path><path d="M25.474 23.45l-.002.004h.002v-.004z"></path><path d="M25.474 23.454v4.384h2.104c-.037.05-.04.05-.074.096.05-.057.09-.11.14-.165l-1.474.003V24.05h2.533v2.834l-.035.028c.217-.162.44-.328.688-.492l.043-2.966h-3.93z"></path><path d="M28.668 26.912c-.93.696-1.404 1.193 0 0z"></path><path d="M27.504 27.934c-.92 1.033-1.533 2.023 0 0z"></path><path d="M9.153 25.932v4.278h.7v-3.676h2.533v3.676h.696v-4.278h-3.93z"></path><path d="M25.32 30.894l-4.387.065v4.414l.32.765c.414.11.75.273 1.03.466V32.11h2.49c.138-.34.317-.766.548-1.22z"></path><path d="M24.774 32.113c-.23.574-.297.832.014 0h-.014z"></path><path d="M47.49 38.483c-.002-.017-.012-.012-.03.02h-.003c.01.018.016.044.026.063.006-.035.01-.07.008-.083z"></path><path d="M47.483 38.566c-.05.3-.383 1.375-.862 2.382l.338-.07c.415 0 .75-.62.75-1.374 0-.372-.088-.69-.22-.938z"></path><path d="M23.29 39.313v.075h1.266c-.004-.014-.007-.017-.012-.03l-1.255-.045z"></path><path d="M24.556 39.388c.298.908.69 1.743.002 0h-.002z"></path><path d="M23.29 39.58v.833h1.63c.59 1.37.06.317-.292-.81l-1.34-.022z"></path><path d="M23.29 41.646v1.08h2.908c-.212-.31-.447-.668-.673-1.065l-2.236-.01z"></path><path d="M26.198 42.725c.534.773.856 1.104.013 0h-.01z"></path><path d="M23.29 43.575v.655h-1.84v.458h6.512c-.328-.306-.703-.673-1.082-1.11l-3.593-.003z"></path><path d="M27.964 44.688c.677.63 1.04.873.017 0h-.012z"></path><path d="M33.91 37.363c.275 2.434 1.143 3.65 2.622 3.65.552 0 1.045-.116 1.52-.35.434-.245.887-.8 1.3-1.67.277-.57.514-.92.712-1.062.216-.14.414-.205.65-.205.436 0 .81.116 1.066.35.237.234.375.556.375.983 0 .98-.552 1.912-1.638 2.755-1.104.842-2.406 1.27-3.964 1.27-1.455 0-2.72-.48-3.804-1.426-1.088-.945-1.737-2.38-1.956-4.297h-1.44c-.14 0-.2-.093-.2-.26 0-.17.06-.39.22-.647.137-.262.254-.377.353-.377h.987v-.374c0-.298.02-.724.037-1.282h-1.4c-.14 0-.2-.09-.2-.257 0-.182.06-.39.216-.66.138-.246.256-.376.355-.376h1.144c.493-3.532 2.368-5.31 5.583-5.31 1.44 0 2.643.34 3.688 1 1.026.648 1.54 1.46 1.54 2.447 0 .336-.118.608-.355.842-.257.23-.553.346-.89.346-.374 0-.67-.09-.867-.272-.158-.168-.336-.44-.513-.816-.215-.48-.473-.842-.788-1.1-.297-.246-.81-.376-1.54-.376-.848 0-1.48.26-1.932.778-.433.534-.75 1.348-.866 2.462h3.67c.138 0 .217.077.217.26 0 .193-.06.4-.2.66-.154.246-.27.374-.37.374h-3.413v1.658h3.77c.137 0 .216.078.216.245 0 .193-.06.415-.2.66-.16.257-.275.376-.374.376h-3.337z"></path><path d="M36.24 24.497c-6.525 0-11.83 5.194-11.83 11.586 0 6.39 5.305 11.586 11.83 11.586 6.528 0 11.83-5.2 11.83-11.59S42.77 24.49 36.24 24.49zm0 1.252c5.836 0 10.55 4.62 10.55 10.33s-4.714 10.33-10.55 10.33c-5.833 0-10.55-4.62-10.55-10.33 0-5.716 4.717-10.336 10.55-10.336z"></path><path d="M15.598 32.902c-.398 0-.797.195-1.003.584-.083.155-.09.178-.09.44 0 .257.006.288.084.443.14.28.342.443.67.55.1.034.194.044.38.04.22-.008.26-.018.445-.1.234-.11.406-.27.523-.49.07-.13.076-.165.076-.43 0-.28-.004-.298-.092-.457-.204-.39-.604-.582-1.003-.58zm2.564 3.41l-.027-.127c-.073-.263-.17-.424-.38-.62-.203-.19-.43-.31-.697-.36-.26-.052-2.69-.052-2.95 0-.5.098-.927.485-1.06.956-.006.02-.01.08-.015.15l5.127.007zm0 0zm.966 1.716c.774 0 1.398.583 1.398 1.304 0 .722-.626 1.305-1.398 1.305-.777 0-1.405-.584-1.405-1.305 0-.722.63-1.304 1.405-1.304zm-13.786 0c.776 0 1.404.583 1.404 1.304 0 .722-.63 1.305-1.404 1.305-.776 0-1.405-.584-1.405-1.305 0-.722.63-1.304 1.405-1.304zm2.72-5.337c.076 0 .155.006.237.01l7.814.024c.717-.013 1.02 0 1.324.63l1.245 3.12-12.968-.014 1.23-3.037c.193-.607.59-.722 1.116-.724zM7.864 31.3c-.9-.03-1.68.24-2.157 1.216l-1.73 4.025c-1.26.324-1.808 1.174-1.837 1.872v5.27h1.664v1.772c-.077 1.69 2.9 1.757 2.968-.016l.036-1.74h10.78l.037 1.74c.066 1.772 3.05 1.706 2.97.016V43.68h1.657v-5.27c-.027-.698-.58-1.55-1.836-1.873l-1.73-4.024c-.48-.974-1.256-1.246-2.156-1.216H7.873z"></path></svg>