<svg xmlns="http://www.w3.org/2000/svg" width="48" height="48" viewBox="0 0 50 50" aria-hidden="true"><path d="M28.598 20.142c-.246-.443-.805-.603-1.25-.356-.447.247-.61.805-.364 1.248.245.444.804.603 1.25.356.446-.247.61-.805.364-1.248"></path><path d="M3.144 5.543l1.708 7.987 3.41-.584L6.58 4.962l-3.436.58zm.927 9.764c-.373-.037-.71-.3-.785-.665L1.238 5.034c-.09-.447.22-.88.7-.957l5.155-.884c.223-.045.473.004.667.13.194.128.334.315.386.527l2.035 9.607c.09.446-.22.88-.69.966l-5.163.875c-.087.017-.172.017-.256.01"></path><path d="M47.208 38.374l.03 7.23-3.406.41-.053-7.22 3.428-.42zm1.156 8.53c.35-.13.622-.443.617-.772l-.043-8.695c-.007-.403-.396-.69-.876-.626l-5.147.617c-.224.02-.455.13-.615.288-.16.16-.256.356-.26.55l.053 8.69c.01.404.398.69.868.638l5.157-.628c.087-.008.17-.03.25-.06"></path><path d="M26.96 29.67c-.186.012-.375.065-.524.168-.228.156-.587.436-.84.9-.252.466-.375 1.095-.273 1.852.13.966.793 1.622 1.374 2.094.58.472 1.195.796 1.266.837.388.223 1.017.502 1.604.764l.455.202c-.022.035-.027.053-.05.09-.27.408-.682.894-1.078 1.17.043-.03-.392.12-.976.12s-1.332-.072-2.1-.183c-1.522-.222-3.16-.62-3.815-.86-.92-.39-2.564-1.734-4.144-2.615l-.03-.016-.03-.014c-.312-.14-.592-.266-.895-.354-.302-.088-.662-.144-1.04-.02l-.003.003h-.004c-.305.106-.502.256-.602.32l-.052.03c-.198-.015-.502-.035-.854-.01-.393.028-.86.05-1.294.482-.54.535-.645 1.406-.363 2.072.258.61.728.773 1.055.938.328.164.59.347.543.293.063.073.034.17.034.644 0 .535.25.665.4.814.15.15.305.274.462.4.312.25.622.542.65.588.202.318.467.947.554 1.158l.004.057c.02.15.057.245.096.34.077.19.178.367.303.57.25.403.598.884.99 1.375.393.49.827.985 1.248 1.4.423.415.78.755 1.28.95.606.24 1.102.32 1.537.264.097-.013.185-.033.27-.056.41.605.822.986 1.164 1.217.196.13.344.2.44.25.005.006.01.02.017.026.095.097.17.134.224.162.11.054.168.064.222.076.108.024.19.032.29.04.196.018.44.027.735.032.59.01 1.374 0 2.206-.025 1.664-.05 3.446-.143 4.358-.322.795-.157 1.176-.32 1.408-.485.23-.165.007-.083.343-.16.61-.143 2.123-.095 3.287-.343 1.185-.252 1.755-.766 2.462-.823.15-.012.655.17 1.246.398.296.114.622.23 1.002.264.38.035.84-.036 1.227-.3.707-.487.93-1.288.996-1.976.07-.69.014-1.366.027-1.89.013-.583.03-1.31-.05-2.03-.078-.72-.228-1.454-.706-2.058-.492-.622-1.192-.798-1.676-.89-.484-.09-.766-.18-.776-.19-.14-.126-.19-.24-.283-.493-.092-.255-.203-.654-.522-1.046-.41-.502-.832-1.014-1.855-1.568-1.195-.647-3.322-1.087-4.34-1.306-.55-.118-.945-.146-1.22-.16-.276-.017-.387-.022-.533-.068-.317-.1-.554-.13-.705-.16-.15-.034-.248-.06-.47-.19-.667-.39-1.097-.492-1.642-1.155-.313-.38-.594-.77-.916-1.092-.16-.16-.33-.318-.603-.432-.138-.056-.322-.083-.51-.07zm.09 1.655c.185.198.444.53.755.91.767.933 1.574 1.225 2.052 1.505.352.205.672.31.92.363.246.054.387.068.565.124.35.11.65.122.91.136.26.015.528.032.983.13.988.212 3.24.78 3.934 1.155.867.47.967.663 1.396 1.19.1.123.158.29.27.597.11.306.292.75.698 1.114.537.482 1.115.48 1.517.555.402.076.61.146.76.335.164.207.322.69.385 1.275.064.584.054 1.25.04 1.828-.014.638.03 1.28-.017 1.775-.05.494-.16.738-.34.863-.058.04-.087.052-.22.04-.132-.013-.345-.073-.593-.17-.495-.19-1.1-.56-1.917-.494-1.232.098-1.885.687-2.66.852-.798.17-2.25.1-3.316.348-.5.117-.836.372-.882.404-.045.033-.108.09-.815.23-.59.117-2.478.246-4.108.295-.815.024-1.584.033-2.135.024-.25-.005-.44-.014-.572-.024-.074-.05-.14-.09-.187-.115-.12-.06-.212-.103-.336-.187-.25-.168-.614-.482-1.036-1.268l-.35-.655-.666.332c-.244.122-.325.168-.435.182-.11.015-.322.01-.78-.17-.035-.013-.404-.26-.764-.616s-.765-.814-1.127-1.267c-.363-.45-.686-.9-.885-1.224-.02-.03-.02-.036-.035-.064l.012-.01-.188-.485s-.342-.93-.755-1.58c-.296-.464-.683-.72-.987-.962-.12-.096-.2-.167-.27-.23.024-.317.016-.914-.413-1.42-.364-.43-.742-.532-1.025-.673-.28-.142-.392-.307-.332-.167-.115-.27-.113-.246.03-.39-.092.093.08-.023.326-.04.246-.02.532 0 .695.014h.03l.028.002c.378.003.683-.16.852-.266.162-.1.23-.145.278-.163.006 0 .035.002.135.03.143.043.378.142.66.27 1.372.768 2.905 2.102 4.29 2.68l.014.006.016.005c.882.325 2.512.706 4.14.943.815.118 1.617.197 2.32.198.7 0 1.287 0 1.853-.394.65-.453 1.136-1.063 1.48-1.586.133-.2.22-.373.308-.542h1.775l-1.842-1.378c-.114-.086-.118-.076-.15-.092l-.102-.05-.27-.122c-.212-.095-.488-.216-.777-.346-.58-.258-1.245-.567-1.467-.694-.185-.106-.617-.336-1.06-.696-.443-.36-.783-.816-.823-1.11-.068-.504.013-.753.102-.917.03-.058.07-.1.11-.145zm-11.267 6.94c.004-.01.023.01.04.058-.004-.004-.02-.015-.023-.02-.015-.014-.02-.03-.017-.037zm9.183 8.793c.01.017.016.032.023.05l-.024-.05zm.052.132c.018.062.03.127.03.198 0-.07-.013-.135-.03-.198z" color="#000" font-family="sans-serif" white-space="normal" overflow="visible" solid-color="#000000"></path><path d="M30.298 22.76c.956-1.748.303-3.952-1.457-4.914-1.758-.96-3.967-.32-4.923 1.428-.662 1.21-.56 2.723.256 3.852l.24.33-.96 1.76.632 1.716-1.28.282.454 1.23-1.65.363c-.044.462.187.922.61 1.153.578.316 1.303.107 1.616-.467l2.673-4.89.408.023c1.392.08 2.718-.653 3.38-1.865zm-7.523-4.11c.486-.89 2.686-2.567 1.953-1.947-.79.67.77 1.232 1.812.68.372-.198.346-1.252.766-1.24.473.013.874.057 1.337.21.28.094.552.212.82.358 2.388 1.307 3.276 4.3 1.977 6.676-.832 1.523-2.44 2.488-4.17 2.54l-2.29 4.19c-.657 1.2-2.174 1.64-3.38.98-1.09-.594-1.576-1.915-1.133-3.07l.114-.297.31-.09.64-.143-.456-1.23 1.28-.28-.312-.848.128-.292.72-1.316c-.893-1.486-.948-3.36-.115-4.883"></path><path d="M16.425 3.182c-3.455.023-8.35.56-8.35.56l-.622.067.106.615L9.112 13.4l4.947-1.138c.052.146.05.164.128.353.194.466.413.994.843 1.38.885.797 2.018.852 2.852 1.02 1.067.216 2.724.22 3.013.22l3.324 2.376 1.482 2.107.23.046c.492.1.993-.05 1.294-.344.3-.293.427-.652.503-.977.15-.65.08-1.273.08-1.273l-.01-.133-.07-.115c-.357-.593-.495-1.91-1.702-3.13l-1.594-2.303.82-1.214c.264.11.558.23 1.198.533.81.382 1.717.878 2.11 1.18.44 1.32 1.26 3.042 1.417 3.364l-.562 1.99c-.466.763 1.244 1.537 1.5 2.183.265.667-.186 1.414.37 1.733l-.56.258 2.563-3.434.022-.146c.27-1.838.593-3.316.826-5.6l.018-.184-.09-.16c-.598-1.08-1.425-2.608-2.37-3.993-.943-1.384-1.97-2.65-3.193-3.194l-.067-.03-.072-.012c-3.876-.67-6.65-1.36-10.565-1.557-.418-.02-.882-.028-1.375-.025zm.02 1.175c.472-.004.91.002 1.295.02 3.772.19 6.47.855 10.333 1.526.78.37 1.775 1.467 2.655 2.76.858 1.257 1.627 2.66 2.222 3.734-.22 2.058-.51 3.47-.773 5.22l-1.73 2.316c-.188-.174 1.006-.596.924-.8-.134-.343-1.493-.475-1.15-1l.038-.06.988-2.783-.107-.22s-1.145-2.39-1.528-3.62l-.05-.158-.123-.11c-.59-.517-1.585-1.006-2.487-1.433C26.05 9.32 25.268 9 25.268 9l-.442-.183-1.812 2.68 2.1 3.035.04.04c.93.908.974 1.855 1.492 2.805.006.125.018.467-.06.802-.046.2-.127.35-.178.4-.018.017-.032.026-.048.036l-1.297-1.843-3.785-2.704-.187-.002s-2.113-.027-2.976-.202c-.938-.19-1.794-.286-2.3-.74-.097-.09-.374-.554-.543-.962-.17-.407-.278-.76-.278-.76l-.16-.522-4.775 1.097-1.235-7.133c1.23-.123 4.877-.468 7.623-.49z" color="#000" font-family="sans-serif" white-space="normal" overflow="visible" solid-color="#000000" fill-rule="evenodd"></path></svg>