<svg xmlns="http://www.w3.org/2000/svg" width="48" height="48" viewBox="0 0 50 50" aria-hidden="true"><path d="M10.45,27v6.58A1.56,1.56,0,0,0,12,35.14H23.68v4h-.23a1.57,1.57,0,0,0,0,3.13H35a1.57,1.57,0,0,0,0-3.13h-.23v-4H46.43A1.57,1.57,0,0,0,48,33.57V11.67a1.56,1.56,0,0,0-1.57-1.56H28.24V14H43.3a.78.78,0,0,1,.79.78V30.45a.78.78,0,0,1-.79.78H15.14a.78.78,0,0,1-.78-.78V28.17"></path><polygon points="47.91 46.39 10.47 46.39 13.18 42.91 45.21 42.91 47.91 46.39"></polygon><rect x="10.45" y="45.78" width="37.55" height="2.22" rx="0.82"></rect><path d="M15,30A15.09,15.09,0,0,1-.14,15a15.14,15.14,0,0,1,30.28,0A15.09,15.09,0,0,1,15,30ZM15,3A12,12,0,1,0,27.14,15,12.09,12.09,0,0,0,15,3Z"></path><path id="path7270" d="M13.24,16.73c.24,2.35,1,3.53,2.27,3.53a2.61,2.61,0,0,0,1.31-.34,3.52,3.52,0,0,0,1.12-1.61,3,3,0,0,1,.62-1,1,1,0,0,1,.56-.2,1.27,1.27,0,0,1,.92.34,1.35,1.35,0,0,1,.33.95A3.53,3.53,0,0,1,19,21a5,5,0,0,1-3.43,1.23,4.55,4.55,0,0,1-3.29-1.38,6.52,6.52,0,0,1-1.69-4.15H9.3c-.12,0-.17-.08-.17-.25a1.3,1.3,0,0,1,.19-.62c.12-.25.22-.36.3-.36h.86v-.37c0-.28,0-.7,0-1.23H9.3c-.12,0-.17-.09-.17-.25A1.33,1.33,0,0,1,9.32,13q.18-.36.3-.36h1c.43-3.42,2.05-5.13,4.83-5.13a5.42,5.42,0,0,1,3.19,1A2.83,2.83,0,0,1,20,10.85a1.19,1.19,0,0,1-.31.81,1.07,1.07,0,0,1-.77.34,1,1,0,0,1-.75-.27,3.24,3.24,0,0,1-.44-.78A2.9,2.9,0,0,0,17,9.88a2,2,0,0,0-1.33-.36,2,2,0,0,0-1.67.75,4.73,4.73,0,0,0-.75,2.38h3.17c.12,0,.18.07.18.25a1.45,1.45,0,0,1-.17.63c-.13.24-.23.37-.32.37h-3v1.6h3.26c.12,0,.18.07.18.23a1.43,1.43,0,0,1-.17.64c-.13.25-.23.36-.32.36H13.24"></path></svg>