<svg xmlns="http://www.w3.org/2000/svg" width="48" height="48" viewBox="0 0 50 50">
<path fill="#272729" d="M97.3,12.5h-11c-0.4,0-0.6-0.4-0.6-0.8c0-0.4,0.2-0.7,0.6-0.7h11c0.3,0,0.6,0.4,0.6,0.7
	C97.9,12.1,97.6,12.5,97.3,12.5z"></path>
<path fill="#272729" d="M97.3,16.4h-11c-0.4,0-0.6-0.3-0.6-0.7c0-0.4,0.2-0.7,0.6-0.7h11c0.3,0,0.6,0.4,0.6,0.7
	C97.9,16.1,97.6,16.4,97.3,16.4z"></path>
<path fill="#272729" d="M97.3,22.5h-11c-0.4,0-0.6-0.4-0.6-0.8c0-0.4,0.2-0.7,0.6-0.7h11c0.3,0,0.6,0.4,0.6,0.7
	C97.9,22.1,97.6,22.5,97.3,22.5z"></path>
<path fill="#272729" d="M97.3,26.4h-11c-0.4,0-0.6-0.3-0.6-0.7c0-0.4,0.2-0.7,0.6-0.7h11c0.3,0,0.6,0.4,0.6,0.7
	C97.9,26.1,97.6,26.4,97.3,26.4z"></path>
<path fill="#272729" d="M97.3,33.5h-11c-0.4,0-0.6-0.4-0.6-0.8c0-0.4,0.2-0.7,0.6-0.7h11c0.3,0,0.6,0.4,0.6,0.7
	C97.9,33.1,97.6,33.5,97.3,33.5z"></path>
<path fill="#272729" d="M97.3,37.4h-11c-0.4,0-0.6-0.3-0.6-0.7c0-0.4,0.2-0.7,0.6-0.7h11c0.3,0,0.6,0.4,0.6,0.7
	C97.9,37.1,97.6,37.4,97.3,37.4z"></path>
<path fill="#272729" d="M117.3,3.6c0-1.1-0.8-2-1.9-2h-0.1H82.5h-0.1c-1.1,0-1.9,0.9-1.9,2c0,0,0,0,0,0v0v28.2v16.2
	c0,1.3,1,2.1,2,2.1h13.9h5h13.9c1.1,0,2-0.9,2-2.1V31.8L117.3,3.6L117.3,3.6C117.3,3.6,117.3,3.6,117.3,3.6z M115.3,31.8v16.2h-14
	h-5h-14V31.8h0V3.7h32.9"></path>
<g>
	<path fill="#272729" d="M105.5,16.6c-0.4,0-0.8-0.2-1.1-0.4l-2.5-2.6c-0.7-0.5-0.6-1.5,0.1-2.1c0.6-0.5,1.6-0.5,2.2,0.1l1.3,1.3
		l4.6-5.3c0.6-0.6,1.5-0.7,2.2-0.2c0.7,0.5,0.8,1.4,0.3,2.2l-5.7,6.5C106.4,16.4,106,16.6,105.5,16.6L105.5,16.6L105.5,16.6z"></path>
</g>
<g>
	<path fill="#272729" d="M250.6,25.1c-5.7,0-10.4,4.3-10.4,9.8s4.7,9.9,10.4,9.9s10.4-4.4,10.4-9.9S256.3,25.1,250.6,25.1
		L250.6,25.1z M250.6,46.7c-6.8,0-12.3-5.3-12.3-11.8s5.5-11.7,12.3-11.7c6.8,0,12.4,5.2,12.4,11.7S257.4,46.7,250.6,46.7"></path>
	<path fill="#272729" d="M248.5,41.7c-0.5,0-1-0.2-1.4-0.6l-3.2-3.3c-0.8-0.7-0.7-1.9,0.1-2.6c0.7-0.7,2-0.7,2.7,0.1l1.7,1.6
		l5.9-6.7c0.7-0.8,1.9-0.9,2.7-0.2c0.8,0.7,1,1.8,0.4,2.7l-7.3,8.3c-0.4,0.5-0.8,0.7-1.4,0.7L248.5,41.7L248.5,41.7z"></path>
</g>
<path fill="none" stroke="#272729" stroke-width="0.5" stroke-miterlimit="10" d="M107.7,17.2h-5.7c-0.8,0-1.4-0.6-1.4-1.4v-4.7
	c0-0.8,0.6-1.4,1.4-1.4h5.7c0.8,0,1.4,0.6,1.4,1.4v4.7C109.1,16.6,108.4,17.2,107.7,17.2z"></path>
<g>
	<path fill="#272729" d="M105.5,27.3c-0.4,0-0.8-0.2-1.1-0.4l-2.5-2.6c-0.7-0.5-0.6-1.5,0.1-2.1c0.6-0.5,1.6-0.5,2.2,0.1l1.3,1.3
		l4.6-5.3c0.6-0.6,1.5-0.7,2.2-0.2c0.7,0.5,0.8,1.4,0.3,2.2l-5.7,6.5C106.4,27.1,106,27.3,105.5,27.3L105.5,27.3L105.5,27.3z"></path>
</g>
<path fill="none" stroke="#272729" stroke-width="0.5" stroke-miterlimit="10" d="M107.7,27.9h-5.7c-0.8,0-1.4-0.6-1.4-1.4v-4.7
	c0-0.8,0.6-1.4,1.4-1.4h5.7c0.8,0,1.4,0.6,1.4,1.4v4.7C109.1,27.3,108.4,27.9,107.7,27.9z"></path>
<g>
	<path fill="#272729" d="M105.5,38.3c-0.4,0-0.8-0.2-1.1-0.4l-2.5-2.6c-0.7-0.5-0.6-1.5,0.1-2.1c0.6-0.5,1.6-0.5,2.2,0.1l1.3,1.3
		l4.6-5.3c0.6-0.6,1.5-0.7,2.2-0.2c0.7,0.5,0.8,1.4,0.3,2.2l-5.7,6.5C106.4,38.1,106,38.3,105.5,38.3L105.5,38.3L105.5,38.3z"></path>
</g>
<path fill="none" stroke="#272729" stroke-width="0.5" stroke-miterlimit="10" d="M107.7,38.9h-5.7c-0.8,0-1.4-0.6-1.4-1.4v-4.7
	c0-0.8,0.6-1.4,1.4-1.4h5.7c0.8,0,1.4,0.6,1.4,1.4v4.7C109.1,38.3,108.4,38.9,107.7,38.9z"></path>
<path fill="#272729" d="M185.3,3.6c0-1.1-0.8-2-1.9-2h-0.1h-32.8h-0.1c-1.1,0-1.9,0.9-1.9,2c0,0,0,0,0,0v0v28.2v16.2
	c0,1.3,1,2.1,2,2.1h13.9h5h13.9c1.1,0,2-0.9,2-2.1V31.8L185.3,3.6L185.3,3.6C185.3,3.6,185.3,3.6,185.3,3.6z M183.3,31.8v16.2h-14
	h-5h-14V31.8h0V3.7h32.9"></path>
<g>
	<g>
		<path fill="#272729" d="M180.4,18.4h-15.9c-0.6,0-0.9-0.4-0.9-0.8c0-0.4,0.3-0.7,0.9-0.7h15.9c0.4,0,0.9,0.4,0.9,0.7
			C181.3,18.1,180.9,18.4,180.4,18.4z"></path>
		<path fill="#272729" d="M180.4,22.3h-15.9c-0.6,0-0.9-0.3-0.9-0.7c0-0.4,0.3-0.7,0.9-0.7h15.9c0.4,0,0.9,0.4,0.9,0.7
			C181.3,22,180.9,22.3,180.4,22.3z"></path>
	</g>
	<path fill="none" stroke="#272729" stroke-width="0.5" stroke-miterlimit="10" d="M158.5,22.4h-3.6c-0.8,0-1.4-0.6-1.4-1.4v-2.8
		c0-0.8,0.6-1.4,1.4-1.4h3.6c0.8,0,1.4,0.6,1.4,1.4V21C160,21.8,159.3,22.4,158.5,22.4z"></path>
	<path fill="#272729" d="M157.4,21.6c-0.3,0-0.6-0.1-0.8-0.3l-1.9-1.9c-0.5-0.4-0.4-1.1,0.1-1.5c0.4-0.4,1.2-0.4,1.6,0.1l1,0.9
		l3.4-3.9c0.4-0.5,1.1-0.5,1.6-0.1c0.5,0.4,0.6,1.1,0.2,1.6l-4.3,4.9C158.1,21.4,157.8,21.6,157.4,21.6L157.4,21.6L157.4,21.6z"></path>
</g>
<g>
	<g>
		<path fill="#272729" d="M180.4,28.4h-15.9c-0.6,0-0.9-0.4-0.9-0.8c0-0.4,0.3-0.7,0.9-0.7h15.9c0.4,0,0.9,0.4,0.9,0.7
			C181.3,28.1,180.9,28.4,180.4,28.4z"></path>
		<path fill="#272729" d="M180.4,32.3h-15.9c-0.6,0-0.9-0.3-0.9-0.7c0-0.4,0.3-0.7,0.9-0.7h15.9c0.4,0,0.9,0.4,0.9,0.7
			C181.3,32,180.9,32.3,180.4,32.3z"></path>
	</g>
	<path fill="none" stroke="#272729" stroke-miterlimit="10" d="M158.5,32.4h-3.6c-0.8,0-1.4-0.6-1.4-1.4v-2.8c0-0.8,0.6-1.4,1.4-1.4
		h3.6c0.8,0,1.4,0.6,1.4,1.4V31C160,31.8,159.3,32.4,158.5,32.4z"></path>
	<path fill="#272729" d="M156,31.6c-0.2,0-0.3-0.1-0.5-0.2l-1.1-1.1c-0.3-0.2-0.2-0.6,0-0.9c0.2-0.2,0.7-0.2,0.9,0L156,30l1.9-2.2
		c0.2-0.3,0.6-0.3,0.9-0.1c0.3,0.2,0.3,0.6,0.1,0.9l-2.4,2.7C156.4,31.5,156.3,31.6,156,31.6L156,31.6L156,31.6z"></path>
</g>
<g>
	<g>
		<path fill="#272729" d="M180.4,38.4h-15.9c-0.6,0-0.9-0.4-0.9-0.8c0-0.4,0.3-0.7,0.9-0.7h15.9c0.4,0,0.9,0.4,0.9,0.7
			C181.3,38.1,180.9,38.4,180.4,38.4z"></path>
		<path fill="#272729" d="M180.4,42.3h-15.9c-0.6,0-0.9-0.3-0.9-0.7c0-0.4,0.3-0.7,0.9-0.7h15.9c0.4,0,0.9,0.4,0.9,0.7
			C181.3,42,180.9,42.3,180.4,42.3z"></path>
	</g>
	<path fill="none" stroke="#272729" stroke-miterlimit="10" d="M158.5,42.4h-3.6c-0.8,0-1.4-0.6-1.4-1.4v-2.8c0-0.8,0.6-1.4,1.4-1.4
		h3.6c0.8,0,1.4,0.6,1.4,1.4V41C160,41.8,159.3,42.4,158.5,42.4z"></path>
	<path fill="#272729" d="M156,41.6c-0.2,0-0.3-0.1-0.5-0.2l-1.1-1.1c-0.3-0.2-0.2-0.6,0-0.9c0.2-0.2,0.7-0.2,0.9,0L156,40l1.9-2.2
		c0.2-0.3,0.6-0.3,0.9-0.1c0.3,0.2,0.3,0.6,0.1,0.9l-2.4,2.7C156.4,41.5,156.3,41.6,156,41.6L156,41.6L156,41.6z"></path>
</g>
<text transform="matrix(1 0 0 1 151.008 11.9179)" font-family="'Marianne-ExtraBold'" font-size="8px">Q</text>
<text transform="matrix(1 0 0 1 157.672 11.9179)" font-family="'Marianne-ExtraBold'" font-size="8px">U</text>
<text transform="matrix(1 0 0 1 163.5841 11.9179)" font-family="'Marianne-ExtraBold'" font-size="8px">I</text>
<text transform="matrix(1 0 0 1 166.5597 11.9179)" font-family="'Marianne-ExtraBold'" font-size="8px">T</text>
<text transform="matrix(1 0 0 1 171.7834 11.9179)" font-family="'Marianne-ExtraBold'" font-size="8px">U</text>
<text transform="matrix(1 0 0 1 177.6955 11.9179)" font-family="'Marianne-ExtraBold'" font-size="8px">S</text>
<rect x="88.8" y="-10.1" fill="none" width="67.4" height="17"></rect>
<path fill="#272729" d="M253.3,3.6c0-1.1-0.8-2-1.9-2h-0.1h-32.8h-0.1c-1.1,0-1.9,0.9-1.9,2c0,0,0,0,0,0v0v28.2v16.2
	c0,1.3,1,2.1,2,2.1h13.9h5h13.9c1.1,0,2-0.9,2-2.1V31.8L253.3,3.6L253.3,3.6C253.3,3.6,253.3,3.6,253.3,3.6z M251.3,31.8v16.2h-14
	h-5h-14V31.8h0V3.7h32.9"></path>
<g>
	<g>
		<path fill="#272729" d="M248.5,37.9h-14.9c-0.5,0-0.8-0.4-0.8-0.8c0-0.4,0.3-0.7,0.8-0.7h14.9c0.4,0,0.8,0.4,0.8,0.7
			C249.3,37.5,248.9,37.9,248.5,37.9z"></path>
		<path fill="#272729" d="M248.5,41.7h-14.9c-0.5,0-0.8-0.3-0.8-0.7c0-0.4,0.3-0.7,0.8-0.7h14.9c0.4,0,0.8,0.4,0.8,0.7
			C249.3,41.5,248.9,41.7,248.5,41.7z"></path>
	</g>
	<g>
		<path fill="none" stroke="#272729" stroke-miterlimit="10" d="M229.3,43.1H223c-0.8,0-1.4-0.6-1.4-1.4v-5.3c0-0.8,0.6-1.4,1.4-1.4
			h6.3c0.8,0,1.4,0.6,1.4,1.4v5.3C230.8,42.5,230.1,43.1,229.3,43.1z"></path>
		<g>
			<path fill="#272729" d="M228.8,41.4l-0.3,0.3c-0.2,0.2-0.6,0.2-0.8,0l-4.2-4.2c-0.2-0.2-0.2-0.6,0-0.8l0.3-0.3
				c0.2-0.2,0.6-0.2,0.8,0l4.2,4.2C229,40.8,229,41.2,228.8,41.4z"></path>
			<path fill="#272729" d="M223.5,41.4l0.3,0.3c0.2,0.2,0.6,0.2,0.8,0l4.2-4.2c0.2-0.2,0.2-0.6,0-0.8l-0.3-0.3
				c-0.2-0.2-0.6-0.2-0.8,0l-4.2,4.2C223.3,40.8,223.3,41.2,223.5,41.4z"></path>
		</g>
	</g>
</g>
<g>
	<g>
		<path fill="#272729" d="M248.5,24.9h-14.9c-0.5,0-0.8-0.4-0.8-0.8c0-0.4,0.3-0.7,0.8-0.7h14.9c0.4,0,0.8,0.4,0.8,0.7
			C249.3,24.5,248.9,24.9,248.5,24.9z"></path>
		<path fill="#272729" d="M248.5,28.7h-14.9c-0.5,0-0.8-0.3-0.8-0.7c0-0.4,0.3-0.7,0.8-0.7h14.9c0.4,0,0.8,0.4,0.8,0.7
			C249.3,28.5,248.9,28.7,248.5,28.7z"></path>
	</g>
	<g>
		<path fill="none" stroke="#272729" stroke-miterlimit="10" d="M229.3,30.1H223c-0.8,0-1.4-0.6-1.4-1.4v-5.3c0-0.8,0.6-1.4,1.4-1.4
			h6.3c0.8,0,1.4,0.6,1.4,1.4v5.3C230.8,29.5,230.1,30.1,229.3,30.1z"></path>
		<g>
			<path fill="#272729" d="M228.8,28.4l-0.3,0.3c-0.2,0.2-0.6,0.2-0.8,0l-4.2-4.2c-0.2-0.2-0.2-0.6,0-0.8l0.3-0.3
				c0.2-0.2,0.6-0.2,0.8,0l4.2,4.2C229,27.8,229,28.2,228.8,28.4z"></path>
			<path fill="#272729" d="M223.5,28.4l0.3,0.3c0.2,0.2,0.6,0.2,0.8,0l4.2-4.2c0.2-0.2,0.2-0.6,0-0.8l-0.3-0.3
				c-0.2-0.2-0.6-0.2-0.8,0l-4.2,4.2C223.3,27.8,223.3,28.2,223.5,28.4z"></path>
		</g>
	</g>
</g>
<g>
	<g>
		<path fill="#272729" d="M248.5,11.9h-14.9c-0.5,0-0.8-0.4-0.8-0.8c0-0.4,0.3-0.7,0.8-0.7h14.9c0.4,0,0.8,0.4,0.8,0.7
			C249.3,11.5,248.9,11.9,248.5,11.9z"></path>
		<path fill="#272729" d="M248.5,15.7h-14.9c-0.5,0-0.8-0.3-0.8-0.7c0-0.4,0.3-0.7,0.8-0.7h14.9c0.4,0,0.8,0.4,0.8,0.7
			C249.3,15.5,248.9,15.7,248.5,15.7z"></path>
	</g>
	<g>
		<path fill="none" stroke="#272729" stroke-miterlimit="10" d="M229.3,17.1H223c-0.8,0-1.4-0.6-1.4-1.4v-5.3c0-0.8,0.6-1.4,1.4-1.4
			h6.3c0.8,0,1.4,0.6,1.4,1.4v5.3C230.8,16.5,230.1,17.1,229.3,17.1z"></path>
		<g>
			<path fill="#272729" d="M228.8,15.4l-0.3,0.3c-0.2,0.2-0.6,0.2-0.8,0l-4.2-4.2c-0.2-0.2-0.2-0.6,0-0.8l0.3-0.3
				c0.2-0.2,0.6-0.2,0.8,0l4.2,4.2C229,14.8,229,15.2,228.8,15.4z"></path>
			<path fill="#272729" d="M223.5,15.4l0.3,0.3c0.2,0.2,0.6,0.2,0.8,0l4.2-4.2c0.2-0.2,0.2-0.6,0-0.8l-0.3-0.3
				c-0.2-0.2-0.6-0.2-0.8,0l-4.2,4.2C223.3,14.8,223.3,15.2,223.5,15.4z"></path>
		</g>
	</g>
</g>
<rect x="156.8" y="-10.1" fill="none" width="67.4" height="17"></rect>
<g>
	<path fill="#272729" d="M318.6,25.1c-5.7,0-10.4,4.3-10.4,9.8s4.7,9.9,10.4,9.9c5.7,0,10.4-4.4,10.4-9.9S324.3,25.1,318.6,25.1
		L318.6,25.1z M318.6,46.7c-6.8,0-12.3-5.3-12.3-11.8s5.5-11.7,12.3-11.7c6.8,0,12.4,5.2,12.4,11.7S325.4,46.7,318.6,46.7"></path>
	<path fill="#272729" d="M316.5,41.7c-0.5,0-1-0.2-1.4-0.6l-3.2-3.3c-0.8-0.7-0.7-1.9,0.1-2.6c0.7-0.7,2-0.7,2.7,0.1l1.7,1.6
		l5.9-6.7c0.7-0.8,1.9-0.9,2.7-0.2c0.8,0.7,1,1.8,0.4,2.7l-7.3,8.3c-0.4,0.5-0.8,0.7-1.4,0.7L316.5,41.7L316.5,41.7z"></path>
</g>
<path fill="none" stroke="#000000" stroke-miterlimit="10" d="M296.7,43.1h-6.3c-0.8,0-1.4-0.6-1.4-1.4v-5.3c0-0.8,0.6-1.4,1.4-1.4
	h6.3c0.8,0,1.4,0.6,1.4,1.4v5.3C298.2,42.5,297.5,43.1,296.7,43.1z"></path>
<g>
	<path d="M296.2,41.4l-0.3,0.3c-0.2,0.2-0.6,0.2-0.8,0l-4.2-4.2c-0.2-0.2-0.2-0.6,0-0.8l0.3-0.3c0.2-0.2,0.6-0.2,0.8,0l4.2,4.2
		C296.4,40.8,296.4,41.2,296.2,41.4z"></path>
	<path d="M290.9,41.4l0.3,0.3c0.2,0.2,0.6,0.2,0.8,0l4.2-4.2c0.2-0.2,0.2-0.6,0-0.8l-0.3-0.3c-0.2-0.2-0.6-0.2-0.8,0l-4.2,4.2
		C290.7,40.8,290.7,41.2,290.9,41.4z"></path>
</g>
<path fill="none" stroke="#000000" stroke-miterlimit="10" d="M296.7,30.1h-6.3c-0.8,0-1.4-0.6-1.4-1.4v-5.3c0-0.8,0.6-1.4,1.4-1.4
	h6.3c0.8,0,1.4,0.6,1.4,1.4v5.3C298.2,29.5,297.5,30.1,296.7,30.1z"></path>
<g>
	<path d="M296.2,28.4l-0.3,0.3c-0.2,0.2-0.6,0.2-0.8,0l-4.2-4.2c-0.2-0.2-0.2-0.6,0-0.8l0.3-0.3c0.2-0.2,0.6-0.2,0.8,0l4.2,4.2
		C296.4,27.8,296.4,28.2,296.2,28.4z"></path>
	<path d="M290.9,28.4l0.3,0.3c0.2,0.2,0.6,0.2,0.8,0l4.2-4.2c0.2-0.2,0.2-0.6,0-0.8l-0.3-0.3c-0.2-0.2-0.6-0.2-0.8,0l-4.2,4.2
		C290.7,27.8,290.7,28.2,290.9,28.4z"></path>
</g>
<path fill="#272729" d="M315.9,11.9H301c-0.5,0-0.8-0.4-0.8-0.8c0-0.4,0.3-0.7,0.8-0.7h14.9c0.4,0,0.8,0.4,0.8,0.7
	C316.7,11.5,316.3,11.9,315.9,11.9z"></path>
<path fill="#272729" d="M315.9,15.7H301c-0.5,0-0.8-0.3-0.8-0.7c0-0.4,0.3-0.7,0.8-0.7h14.9c0.4,0,0.8,0.4,0.8,0.7
	C316.7,15.5,316.3,15.7,315.9,15.7z"></path>
<path fill="none" stroke="#000000" stroke-miterlimit="10" d="M296.7,17.1h-6.3c-0.8,0-1.4-0.6-1.4-1.4v-5.3c0-0.8,0.6-1.4,1.4-1.4
	h6.3c0.8,0,1.4,0.6,1.4,1.4v5.3C298.2,16.5,297.5,17.1,296.7,17.1z"></path>
<g>
	<path d="M296.2,15.4l-0.3,0.3c-0.2,0.2-0.6,0.2-0.8,0l-4.2-4.2c-0.2-0.2-0.2-0.6,0-0.8l0.3-0.3c0.2-0.2,0.6-0.2,0.8,0l4.2,4.2
		C296.4,14.8,296.4,15.2,296.2,15.4z"></path>
	<path d="M290.9,15.4l0.3,0.3c0.2,0.2,0.6,0.2,0.8,0l4.2-4.2c0.2-0.2,0.2-0.6,0-0.8l-0.3-0.3c-0.2-0.2-0.6-0.2-0.8,0l-4.2,4.2
		C290.7,14.8,290.7,15.2,290.9,15.4z"></path>
</g>
<rect x="224.8" y="-10.1" fill="none" width="67.4" height="17"></rect>
<g>
	<path d="M319.3,47.9h-14h-5h-14V31.8h0V3.7h32.9l0,19.5c0.7,0,1.3,0.1,1.9,0.3V3.6v0c0,0,0,0,0,0c0-1.1-0.8-2-1.9-2h-0.1h-32.8
		h-0.1c-1.1,0-1.9,0.9-1.9,2c0,0,0,0,0,0v0v28.2v16.2c0,1.3,1,2.1,2,2.1h13.9h5h13.9c1.1,0,2-0.9,2-2.1v-1.6
		c-0.6,0.1-1.3,0.2-1.9,0.3V47.9z"></path>
	<path d="M301,36.4c-0.5,0-0.8,0.4-0.8,0.7c0,0.4,0.3,0.8,0.8,0.8h5.7c-0.1-0.5-0.2-1-0.3-1.5H301z"></path>
	<path d="M301,40.3c-0.5,0-0.8,0.4-0.8,0.7c0,0.4,0.3,0.7,0.8,0.7h7.6c-0.3-0.5-0.7-0.9-0.9-1.4H301z"></path>
	<path d="M315.9,23.4H301c-0.5,0-0.8,0.4-0.8,0.7c0,0.4,0.3,0.8,0.8,0.8h11.1c1.2-0.7,2.5-1.2,3.9-1.5
		C316,23.4,315.9,23.4,315.9,23.4z"></path>
	<path d="M301,27.3c-0.5,0-0.8,0.4-0.8,0.7c0,0.4,0.3,0.7,0.8,0.7h7.1c0.3-0.5,0.7-1,1.1-1.4H301z"></path>
</g>
<rect x="292.8" y="-10.1" fill="none" width="67.4" height="17"></rect>
<text transform="matrix(1 0 0 1 219.2399 -5.6177)" fill="#FFFFFF" font-family="'Marianne-Medium'" font-size="8px">Q</text>
<text transform="matrix(1 0 0 1 225.9596 -5.6177)" fill="#FFFFFF" font-family="'Marianne-Medium'" font-size="8px">U</text>
<text transform="matrix(1 0 0 1 231.7838 -5.6177)" fill="#FFFFFF" font-family="'Marianne-Medium'" font-size="8px">I</text>
<text transform="matrix(1 0 0 1 234.4235 -5.6177)" fill="#FFFFFF" font-family="'Marianne-Medium'" font-size="8px">T</text>
<text transform="matrix(1 0 0 1 239.528 -5.6177)" fill="#FFFFFF" font-family="'Marianne-Medium'" font-size="8px">U</text>
<text transform="matrix(1 0 0 1 245.3512 -5.6177)" fill="#FFFFFF" font-family="'Marianne-Medium'" font-size="8px">S</text>
<g>
	<path fill="#FFFFFF" d="M96.7-9.4c-0.3,0.1-0.6,0.1-0.9,0.1c-1.8,0-3-1.4-3-3s1.2-3,3-3c1.8,0,3,1.4,3,3c0,1-0.4,1.9-1.2,2.4
		 M97.8-12.3c0-1.2-0.8-2.1-2-2.1c-1.2,0-2,0.9-2,2.1c0,1.2,0.8,2.1,2,2.1C97-10.2,97.8-11.1,97.8-12.3z"></path>
	<path fill="#FFFFFF" d="M103.4-15.1h0.9v3.5c0,1.4-0.9,2.3-2.2,2.3c-1.4,0-2.2-0.9-2.2-2.3v-3.5h0.9v3.5c0,0.9,0.5,1.4,1.3,1.4
		c0.8,0,1.3-0.5,1.3-1.4V-15.1z"></path>
	<path fill="#FFFFFF" d="M105.9-15.1h0.9v5.6h-0.9V-15.1z"></path>
	<path fill="#FFFFFF" d="M107.9-15.1h4.5v0.8h-1.8v4.8h-0.9v-4.8h-1.8V-15.1z"></path>
	<path fill="#FFFFFF" d="M117-15.1h0.9v3.5c0,1.4-0.9,2.3-2.2,2.3c-1.4,0-2.2-0.9-2.2-2.3v-3.5h0.9v3.5c0,0.9,0.5,1.4,1.3,1.4
		c0.8,0,1.3-0.5,1.3-1.4V-15.1z"></path>
	<path fill="#FFFFFF" d="M119.7-10.9c0.4,0.5,0.8,0.7,1.3,0.7c0.5,0,0.9-0.3,0.9-0.8c0-1.1-2.6-0.9-2.6-2.8c0-0.8,0.7-1.6,1.7-1.6
		c0.8,0,1.4,0.4,1.9,0.9l-0.7,0.6c-0.3-0.4-0.7-0.7-1.2-0.7c-0.5,0-0.8,0.3-0.8,0.7c0,1.1,2.6,0.9,2.6,2.8c0,1-0.8,1.6-1.8,1.6
		c-0.9,0-1.5-0.3-2-0.9L119.7-10.9z"></path>
</g>
<rect x="96.4" y="-12.1" transform="matrix(0.8787 -0.4774 0.4774 0.8787 16.554 45.0594)" fill="#FFFFFF" width="1" height="4"></rect>
<g>
	<path d="M12.3,32.9H6c-1.1,0-1.9,0.9-1.9,1.9v5.3C4,41.2,4.9,42,6,42h6.3c1.1,0,1.9-0.9,1.9-1.9v-5.3
		C14.2,33.8,13.4,32.9,12.3,32.9z M13.2,40.1c0,0.5-0.4,0.9-0.9,0.9H6C5.5,41,5,40.6,5,40.1v-5.3c0-0.5,0.4-0.9,0.9-0.9h6.3
		c0.5,0,0.9,0.4,0.9,0.9V40.1z"></path>
	<path d="M11.8,35.1l-0.3-0.3c-0.2-0.2-0.6-0.2-0.8,0l-1.6,1.6l-1.6-1.6c-0.2-0.2-0.6-0.2-0.8,0l-0.3,0.3c-0.2,0.2-0.2,0.6,0,0.8
		L8,37.5L6.5,39c-0.2,0.2-0.2,0.6,0,0.8l0.3,0.3c0.2,0.2,0.6,0.2,0.8,0l1.6-1.6l1.6,1.6c0.2,0.2,0.6,0.2,0.8,0l0.3-0.3
		c0.2-0.2,0.2-0.6,0-0.8l-1.6-1.6l1.6-1.6C12,35.7,12,35.4,11.8,35.1z"></path>
	<path d="M12.3,19.9H6c-1.1,0-1.9,0.9-1.9,1.9v5.3C4,28.2,4.9,29,6,29h6.3c1.1,0,1.9-0.9,1.9-1.9v-5.3
		C14.2,20.8,13.4,19.9,12.3,19.9z M13.2,27.1c0,0.5-0.4,0.9-0.9,0.9H6C5.5,28,5,27.6,5,27.1v-5.3c0-0.5,0.4-0.9,0.9-0.9h6.3
		c0.5,0,0.9,0.4,0.9,0.9V27.1z"></path>
	<path d="M11.8,22.1l-0.3-0.3c-0.2-0.2-0.6-0.2-0.8,0l-1.6,1.6l-1.6-1.6c-0.2-0.2-0.6-0.2-0.8,0l-0.3,0.3c-0.2,0.2-0.2,0.6,0,0.8
		L8,24.5L6.5,26c-0.2,0.2-0.2,0.6,0,0.8l0.3,0.3c0.2,0.2,0.6,0.2,0.8,0l1.6-1.6l1.6,1.6c0.2,0.2,0.6,0.2,0.8,0l0.3-0.3
		c0.2-0.2,0.2-0.6,0-0.8l-1.6-1.6l1.6-1.6C12,22.7,12,22.4,11.8,22.1z"></path>
	<path d="M5.8,9.8c0.2,0,0.3,0,0.5-0.1L5.5,8.4L6.4,8l0.7,1.4c0.4-0.4,0.7-0.9,0.7-1.6c0-1.2-0.8-2.1-2-2.1c-1.2,0-2,0.9-2,2.1
		C3.8,8.9,4.7,9.8,5.8,9.8z"></path>
	<path d="M36.8,21.8V2v0c0,0,0,0,0,0c0-1.1-0.8-2-1.9-2h-0.1H2H1.9C0.8,0,0,0.9,0,2c0,0,0,0,0,0v0v28.2v16.2c0,1.3,1,2.1,2,2.1h13.9
		h5h13.9c1.1,0,2-0.9,2-2.1v-1.6c5.5-1.2,9.7-5.9,9.7-11.5C46.6,27.7,42.4,23,36.8,21.8z M29.2,6.3c0-0.8,0.7-1.6,1.7-1.6
		c0.8,0,1.4,0.4,1.9,0.9l-0.7,0.6c-0.3-0.4-0.7-0.7-1.2-0.7c-0.5,0-0.8,0.3-0.8,0.7c0,1.1,2.6,0.9,2.6,2.8c0,1-0.8,1.6-1.8,1.6
		c-0.9,0-1.5-0.3-2-0.9l0.7-0.6C30,9.6,30.5,9.9,31,9.9c0.5,0,0.9-0.3,0.9-0.8C31.8,7.9,29.2,8.1,29.2,6.3z M23.5,4.9h0.9v3.5
		c0,0.9,0.5,1.4,1.3,1.4c0.8,0,1.3-0.5,1.3-1.4V4.9h0.9v3.5c0,1.4-0.9,2.3-2.2,2.3c-1.4,0-2.2-0.9-2.2-2.3V4.9z M17.9,4.9h4.5v0.8
		h-1.8v4.8h-0.9V5.8h-1.8V4.9z M15.9,4.9h0.9v5.6h-0.9V4.9z M9.9,4.9h0.9v3.5c0,0.9,0.5,1.4,1.3,1.4c0.8,0,1.3-0.5,1.3-1.4V4.9h0.9
		v3.5c0,1.4-0.9,2.3-2.2,2.3c-1.4,0-2.2-0.9-2.2-2.3V4.9z M5.8,4.8c1.8,0,3,1.4,3,3c0,1-0.4,1.9-1.2,2.4l0,0l0.7,1.4L7.5,12
		l-0.8-1.4l0,0c-0.3,0.1-0.6,0.1-0.9,0.1c-1.8,0-3-1.4-3-3S4.1,4.8,5.8,4.8z M34.9,46.3h-14h-5h-14V30.2h0V14.5h32.9l0,7
		c-0.3,0-0.5,0-0.8,0c-0.9,0-1.7,0.1-2.6,0.3c0,0,0,0,0,0c0,0-0.1,0-0.1,0H16.5c-0.5,0-0.8,0.4-0.8,0.7c0,0.4,0.3,0.8,0.8,0.8h11.1
		c-1.1,0.7-2.1,1.5-3,2.4h-8.2c-0.5,0-0.8,0.4-0.8,0.7c0,0.4,0.3,0.7,0.8,0.7h7.1c0,0,0,0,0,0c-1.1,1.8-1.8,3.9-1.8,6.1
		c0,0.5,0,1,0.1,1.5h-5.4c-0.5,0-0.8,0.4-0.8,0.7c0,0.4,0.3,0.8,0.8,0.8h5.7c0,0,0,0,0,0c0.2,0.8,0.6,1.7,1,2.4h-6.7
		c-0.5,0-0.8,0.4-0.8,0.7c0,0.4,0.3,0.7,0.8,0.7h7.6c2.2,3,5.9,4.9,10,4.9c0.3,0,0.5,0,0.8,0V46.3z M34.1,43.2
		c-5.7,0-10.4-4.4-10.4-9.9c0-5.5,4.7-9.8,10.4-9.8v0c5.7,0,10.4,4.3,10.4,9.8C44.5,38.7,39.9,43.2,34.1,43.2z"></path>
	<path d="M40.6,28.4c-0.8-0.7-2-0.6-2.7,0.2L32,35.3l-1.7-1.6c-0.7-0.8-2-0.8-2.7-0.1c-0.8,0.7-1,1.9-0.1,2.6l3.2,3.3
		c0.5,0.3,1,0.6,1.4,0.6v0h0.1c0.6,0,1.1-0.2,1.4-0.7l7.3-8.3C41.5,30.2,41.4,29.1,40.6,28.4z"></path>
</g>
</svg>