<svg xmlns:dc="http://purl.org/dc/elements/1.1/" xmlns:cc="http://creativecommons.org/ns#" xmlns:rdf="http://www.w3.org/1999/02/22-rdf-syntax-ns#" xmlns:svg="http://www.w3.org/2000/svg" xmlns="http://www.w3.org/2000/svg" xmlns:sodipodi="http://sodipodi.sourceforge.net/DTD/sodipodi-0.dtd" xmlns:inkscape="http://www.inkscape.org/namespaces/inkscape" version="1.1" width="48" height="48" viewBox="0 0 48 48" id="svg2" inkscape:version="0.48.5 r10040" sodipodi:docname="amende.svg" aria-hidden="true"><defs id="defs10"></defs><namedview pagecolor="#ffffff" bordercolor="#666666" borderopacity="1" objecttolerance="10" gridtolerance="10" guidetolerance="10" inkscape:pageopacity="0" inkscape:pageshadow="2" inkscape:window-width="1440" inkscape:window-height="853" id="namedview8" showgrid="false" inkscape:zoom="12.370586" inkscape:cx="24" inkscape:cy="24" inkscape:window-x="-4" inkscape:window-y="-4" inkscape:window-maximized="1" inkscape:current-layer="svg2"></namedview><path d="m 28.334906,0.94313559 c -0.502443,0 -1.004884,0.18117211 -1.384315,0.53862011 -0.3725,0.3574479 -0.564815,0.8291491 -0.564815,1.297585 0,0.4700679 0.192315,0.9417691 0.564815,1.3008491 2.110258,1.9863658 3.818562,4.2061341 5.154366,6.5662692 l 4.324469,0 C 34.833738,7.3249678 32.612597,4.2091327 29.719221,1.4817557 29.339791,1.1243077 28.837349,0.94313559 28.334906,0.94313559 z M 21.797958,7.0980947 c -0.497244,0 -0.994489,0.181172 -1.37392,0.53862 -0.391558,0.3607121 -0.585605,0.9940871 -0.18142,1.7050337 0.231515,0.4072272 2.121232,2.3046506 2.51279,2.6620986 1.211543,1.454006 2.360387,3.646057 2.360387,3.646057 L 27.83491,12.847896 C 27.174056,11.309814 24.40827,8.1924675 23.168413,7.6367147 22.788982,7.2792667 22.295202,7.0980947 21.797958,7.0980947 z M 14.904102,13.58602 c -0.500709,0 -1.003152,0.182804 -1.384315,0.541884 -0.369036,0.357448 -0.561349,0.825884 -0.561349,1.297585 0,0.468436 0.192313,0.936873 0.561349,1.297585 4.113097,3.871536 4.113097,10.173392 0,14.044928 -0.760594,0.718161 -0.760594,1.878642 0,2.598434 0.781385,0.718161 2.008036,0.718161 2.768631,0 2.458502,-2.314435 3.842817,-5.265419 4.154679,-8.29475 l 0,-2.652296 C 20.129502,19.391692 18.74692,16.44397 16.288418,14.127904 15.908987,13.768824 15.404812,13.58602 14.904102,13.58602 z m -8.7407638,5.890545 c -1.1590828,0 -2.3216306,0.416207 -3.2087015,1.250252 -0.8991981,0.834045 -1.3236754,1.927607 -1.3236754,3.022801 0,1.095195 0.4244773,2.182229 1.3236754,3.019538 1.7724085,1.66809 4.6397962,1.66809 6.4156698,0 0.8766755,-0.835677 1.3236755,-1.924343 1.3236755,-3.019538 0,-1.095194 -0.445268,-2.190388 -1.3236755,-3.022801 C 8.4832356,19.892772 7.3224209,19.476565 6.161605,19.476565 z M 24.999822,31.333026 c -0.489359,0.885419 -3.053633,5.482155 -4.575784,5.921269 -0.760594,0.71816 -0.760594,1.878642 0,2.59517 0.760594,0.71816 1.983781,0.71816 2.744375,0 2.519076,-1.979347 4.673881,-5.349259 5.850324,-7.651038 z m 1.950769,12.084389 c -0.760594,0.716528 -0.760594,1.878641 0,2.598434 0.757129,0.716529 2.008037,0.716529 2.76863,0 3.748317,-2.714254 8.192257,-9.676415 9.326127,-15.05512 l -3.769246,-0.437411 c -1.553869,5.562424 -5.380908,10.356417 -8.325511,12.894097 z" id="path4" inkscape:connector-curvature="0" sodipodi:nodetypes="scsccccsscsccccsscscccccccsccsccsccccccccccscccc"></path><path d="m 30.992654,13.408112 c -0.997956,-0.03428 -1.859038,0.272574 -2.389201,1.375929 l -1.916211,4.557053 c -1.396443,0.365609 -2.004572,1.328596 -2.035758,2.118573 v 5.965626 h 1.841712 v 2.007584 c -0.08836,1.912918 3.212165,1.987998 3.286665,-0.01958 l 0.03985,-1.970044 h 11.942534 l 0.03985,1.970044 c 0.0745,2.007584 3.378492,1.934135 3.290132,0.01958 v -2.007584 h 1.838245 v -5.965626 c -0.03292,-0.789977 -0.639315,-1.752964 -2.035757,-2.118573 l -1.916212,-4.557053 c -0.530163,-1.101723 -1.391245,-1.408573 -2.389199,-1.375929 h -9.591453 z m 0.218302,1.579953 c 0.08316,0 0.171523,0.0016 0.261616,0.0065 l 8.662799,0.02612 c 0.793512,-0.01796 1.129629,0 1.465746,0.711631 l 1.379118,3.532043 -14.368119,-0.01632 1.363525,-3.437376 c 0.213104,-0.688781 0.651442,-0.817724 1.235315,-0.820988 z m -3.016387,6.043969 c 0.85935,0 1.555838,0.659403 1.555838,1.475493 0,0.816092 -0.698221,1.478758 -1.555838,1.478758 -0.85935,0 -1.555839,-0.662666 -1.555839,-1.478758 0,-0.81609 0.698222,-1.475493 1.555839,-1.475493 z m 15.274247,0 c 0.85935,0 1.552375,0.659403 1.552375,1.475493 0,0.816092 -0.694758,1.478758 -1.552375,1.478758 -0.859348,0 -1.555838,-0.662666 -1.555838,-1.478758 0,-0.81609 0.698221,-1.475493 1.555838,-1.475493 z m -1.068989,-1.943928 v 0 z m 0,0 c -0.0087,-0.0555 -0.01906,-0.09794 -0.03118,-0.143632 -0.0797,-0.298689 -0.18885,-0.479862 -0.419281,-0.701838 -0.225232,-0.215449 -0.476454,-0.349288 -0.772721,-0.408046 -0.289338,-0.05876 -2.980003,-0.05876 -3.271073,0 -0.552686,0.110994 -1.025675,0.548413 -1.17121,1.082137 -0.007,0.02286 -0.01214,0.08488 -0.01732,0.166482 l 5.681063,0.0065 z m -2.839665,-3.860111 c -0.443535,0 -0.885338,0.218712 -1.112304,0.659402 -0.09182,0.176276 -0.09875,0.204023 -0.09875,0.499447 0,0.292161 0.0069,0.326436 0.09355,0.50108 0.157663,0.316643 0.382896,0.505977 0.743268,0.62839 0.112613,0.03754 0.218303,0.0506 0.422745,0.04408 0.244291,-0.0081 0.294535,-0.02122 0.497244,-0.115881 0.259885,-0.122415 0.450466,-0.303585 0.580408,-0.553309 0.07623,-0.148529 0.08316,-0.187701 0.08316,-0.489655 0,-0.313379 -0.0034,-0.334597 -0.09875,-0.515769 -0.226966,-0.439058 -0.670502,-0.65777 -1.112304,-0.656137 z" id="path6" inkscape:connector-curvature="0"></path></svg>