<svg xmlns="http://www.w3.org/2000/svg" width="48" height="48" viewBox="0 0 50 50" aria-hidden="true"><path d="M25.203 11.365c-4.778 0-8.65 3.886-8.65 8.663 0 4.778 3.872 8.664 8.65 8.664 4.777 0 8.667-3.886 8.667-8.664 0-4.777-3.89-8.663-8.667-8.663zm0 19.932c-6.216 0-11.26-5.054-11.26-11.27 0-6.213 5.044-11.266 11.26-11.266S36.48 13.815 36.48 20.03c0 6.215-5.06 11.27-11.277 11.27"></path><path d="M25.203 14.837c-2.86 0-5.186 2.33-5.186 5.19 0 2.864 2.326 5.193 5.186 5.193s5.204-2.33 5.204-5.192c0-2.86-2.345-5.19-5.204-5.19zm0 11.685c-3.57 0-6.5-2.913-6.5-6.494 0-3.58 2.93-6.493 6.5-6.493 3.587 0 6.5 2.913 6.5 6.493 0 3.58-2.913 6.494-6.5 6.494"></path><path d="M19.66 40.39c-.425 0-.85-.22-1.082-.587l-2.025-3.08-3.676-.083c-.462-.013-.87-.26-1.1-.654-.232-.396-.232-.88 0-1.28l4.776-8.63c.338-.63 1.155-.854 1.776-.506.62.35.852 1.142.497 1.772l-3.748 6.742 2.22.052c.426.013.816.23 1.047.588l1.226 1.85 3.747-6.745c.355-.63 1.137-.855 1.776-.507.622.35.835 1.14.498 1.77l-4.796 8.627c-.213.4-.64.654-1.083.67h-.054"></path><path d="M30.744 40.39h-.035c-.463-.017-.87-.27-1.084-.67l-4.796-8.627c-.355-.63-.125-1.42.497-1.77.64-.35 1.42-.123 1.777.506l3.747 6.742 1.21-1.85c.23-.357.638-.578 1.064-.586l2.203-.052-3.748-6.742c-.338-.63-.125-1.423.514-1.773.622-.35 1.42-.123 1.776.505l4.778 8.63c.23.4.23.885 0 1.28s-.64.644-1.1.654l-3.678.083-2.024 3.08c-.25.367-.657.587-1.1.587"></path></svg>