<svg xmlns="http://www.w3.org/2000/svg" width="48" height="48" viewBox="0 0 50 50" aria-hidden="true"><path id="path5428" d="M41.06,32.61l-5-4a3.63,3.63,0,0,0-4.91.54L27,34.41c-1.34,1.72-2.61,5.53-1.53,7.57a8.61,8.61,0,0,0,5,4c2.21.59,5.65-1.48,7-3.18l4.18-5.23A3.63,3.63,0,0,0,41.06,32.61ZM26.33,46a10.52,10.52,0,0,1-2.59-3.05c-1.68-3.17.29-7.88,1.72-9.7L29.65,28a5.53,5.53,0,0,1,7.6-.88l5,4a5.54,5.54,0,0,1,.85,7.64L39,44c-1.47,1.8-5.63,4.75-9.07,3.82A10.51,10.51,0,0,1,26.33,46"></path><path id="path5430" d="M35.34,34.47a1,1,0,0,1-.15-1.36l3.14-3.93a1,1,0,1,1,1.51,1.21l-3.15,3.93a1,1,0,0,1-1.35.15"></path><path d="M39.3,30.73l-1.23-1.58a9.92,9.92,0,0,0,4-5.79A9.27,9.27,0,0,0,41.31,18c-.67-1.86-1.37-3.78-.46-6.06a8.09,8.09,0,0,1,8.2-5,8.21,8.21,0,0,1,5.72,4.19l-1.75,1A6.34,6.34,0,0,0,48.78,9a6.12,6.12,0,0,0-6.07,3.73c-.63,1.57-.14,2.92.48,4.64a11.28,11.28,0,0,1,.86,6.39A12,12,0,0,1,39.3,30.73Z"></path><path id="path6084" d="M18.69,40.63H13.46c-.49,0-.88-.56-.88-1.25s.39-1.25.88-1.25h5.23c.49,0,.88.56.88,1.25s-.39,1.25-.88,1.25"></path><path id="path6080" d="M12.62,29.6h6.93A6.9,6.9,0,0,1,20.61,26a15.74,15.74,0,0,0,3.46-8.31,8,8,0,1,0-16,0A15.76,15.76,0,0,0,11.52,26a6.89,6.89,0,0,1,1.1,3.58Zm8.18,2.5H11.39a1.25,1.25,0,0,1-1.25-1.32,6.08,6.08,0,0,0-.61-3.25,17.65,17.65,0,0,1-3.95-9.81,10.5,10.5,0,1,1,21,0,17.68,17.68,0,0,1-4,9.83A6.28,6.28,0,0,0,22,30.77,1.25,1.25,0,0,1,20.8,32.1"></path><path id="path6082" d="M21,34.89H11.18a1.25,1.25,0,0,1,0-2.5H21a1.25,1.25,0,0,1,0,2.5"></path><path id="path6084-2" data-name="path6084" d="M19.79,37.63H12.36a1.25,1.25,0,0,1,0-2.5h7.43a1.25,1.25,0,0,1,0,2.5"></path><path id="path6086" d="M13.84,30.69,12.25,17.63l1.24-.15,1.59,13.06-1.24.15"></path><path id="path6088" d="M18.31,30.69l-1.24-.15,1.58-13.06,1.25.15L18.31,30.69"></path><path id="path6090" d="M18.3,20.76a.89.89,0,0,1-.77-.45.9.9,0,0,1-.77.45.91.91,0,0,1-.77-.44.91.91,0,0,1-.77.44.87.87,0,0,1-.76-.44.89.89,0,0,1-.77.44c-.59,0-.83-.54-.95-.8l-.09-.18a.39.39,0,0,0,.28.12V18.65a.89.89,0,0,1,.76.44.89.89,0,0,1,1.53,0,.91.91,0,0,1,.77-.44.9.9,0,0,1,.77.45.89.89,0,0,1,.77-.45.9.9,0,0,1,.77.45.9.9,0,0,1,.77-.45V19.9a.36.36,0,0,0,.27-.12l-.08.18c-.12.26-.36.8-1,.8"></path><path id="path4682" d="M16.25,5.29A1.24,1.24,0,0,1,15,4V1.25a1.25,1.25,0,0,1,2.5,0V4a1.24,1.24,0,0,1-1.25,1.25"></path><path id="path4684" d="M10.21,6.81a1.24,1.24,0,0,1-1.08-.62L7.73,3.77a1.25,1.25,0,0,1,.46-1.71,1.26,1.26,0,0,1,1.71.47l1.39,2.41a1.24,1.24,0,0,1-1.08,1.87"></path><path id="path4686" d="M5.74,11.16A1.23,1.23,0,0,1,5.12,11L2.7,9.6A1.25,1.25,0,1,1,4,7.43l2.41,1.4a1.25,1.25,0,0,1-.62,2.33"></path><path id="path4688" d="M4,17.15H1.25a1.25,1.25,0,1,1,0-2.5H4a1.25,1.25,0,1,1,0,2.5"></path><path id="path4700" d="M30.9,17.5H28.11a1.25,1.25,0,0,1,0-2.5H30.9a1.25,1.25,0,0,1,0,2.5"></path><path id="path4702" d="M26.58,11.46a1.24,1.24,0,0,1-1.08-.62A1.27,1.27,0,0,1,26,9.12l2.42-1.38a1.23,1.23,0,0,1,1.7.45,1.25,1.25,0,0,1-.46,1.71l-2.41,1.39a1.29,1.29,0,0,1-.63.17"></path><path id="path4704" d="M22.24,7a1.25,1.25,0,0,1-.62-.16,1.26,1.26,0,0,1-.46-1.72l1.4-2.41A1.25,1.25,0,1,1,24.72,4l-1.4,2.41A1.25,1.25,0,0,1,22.24,7"></path></svg>