<svg xmlns="http://www.w3.org/2000/svg" width="48" height="48" viewBox="0 0 50 50"><path d="M24.06,1.75c-1,0-1.77,1.12-1.77,2.5s.79,2.49,1.77,2.49,1.78-1.12,1.78-2.49-.8-2.5-1.78-2.5Zm0,6.74c-1.81,0-3.29-1.91-3.29-4.24S22.25,0,24.06,0s3.3,1.91,3.3,4.25-1.48,4.24-3.3,4.24m-4.23,6.65h8.35l.16-2.82a2,2,0,0,0-1-1.71,8.63,8.63,0,0,0-6.62,0,2,2,0,0,0-1,1.71l.16,2.82Zm9.05,1.74H19.12a.81.81,0,0,1-.76-.81l-.22-3.64a3.78,3.78,0,0,1,2-3.47,10,10,0,0,1,7.65,0,3.77,3.77,0,0,1,2,3.48l-.22,3.63a.8.8,0,0,1-.75.81"></path><path d="M40,37.75a13.28,13.28,0,0,0-4.18-1c2-.42,3.57-2.69,3.57-5.4,0-3-1.91-5.5-4.26-5.5s-4.26,2.46-4.26,5.5c0,2.7,1.53,5,3.54,5.4a13.1,13.1,0,0,0-4.32,1,4.88,4.88,0,0,0-2.62,4.49L27.79,47a1.06,1.06,0,0,0,1,1H41.41a1.05,1.05,0,0,0,1-1l.28-4.7A4.86,4.86,0,0,0,40,37.75ZM35.4,46.09a.9.9,0,0,1-.67.24A1,1,0,0,1,34,46.1a.89.89,0,0,1-.24-.66.87.87,0,0,1,.24-.67,1.14,1.14,0,0,1,1.37,0,.9.9,0,0,1,.24.67A.89.89,0,0,1,35.4,46.09Zm1.74-4.8a3.84,3.84,0,0,1-1,1,2.81,2.81,0,0,0-.64.56.91.91,0,0,0-.13.52v.31H34v-.39a1.67,1.67,0,0,1,.22-.88,2.66,2.66,0,0,1,.79-.79,3.37,3.37,0,0,0,.73-.65,1,1,0,0,0,.17-.55.59.59,0,0,0-.25-.52,1.2,1.2,0,0,0-.71-.18,4.09,4.09,0,0,0-1.8.51L32.55,39A5,5,0,0,1,35,38.37a2.66,2.66,0,0,1,1.73.52,1.72,1.72,0,0,1,.64,1.39A1.86,1.86,0,0,1,37.14,41.29Z"></path><path d="M17.86,37.75a13.28,13.28,0,0,0-4.18-1c2-.42,3.57-2.69,3.57-5.4,0-3-1.91-5.5-4.26-5.5s-4.26,2.46-4.26,5.5c0,2.7,1.53,5,3.54,5.4a13,13,0,0,0-4.31,1,4.87,4.87,0,0,0-2.63,4.49L5.61,47a1.06,1.06,0,0,0,1,1H19.23a1,1,0,0,0,1-1l.28-4.7A4.86,4.86,0,0,0,17.86,37.75Zm-4.64,8.34a.9.9,0,0,1-.67.24,1,1,0,0,1-.69-.23.89.89,0,0,1-.24-.66.87.87,0,0,1,.24-.67,1.14,1.14,0,0,1,1.37,0,.9.9,0,0,1,.24.67A.85.85,0,0,1,13.22,46.09ZM15,41.29a3.84,3.84,0,0,1-1,1,3.06,3.06,0,0,0-.64.56.91.91,0,0,0-.13.52v.31h-1.4v-.39a1.67,1.67,0,0,1,.22-.88,2.66,2.66,0,0,1,.79-.79,3.37,3.37,0,0,0,.73-.65.9.9,0,0,0,.17-.55.59.59,0,0,0-.25-.52,1.2,1.2,0,0,0-.71-.18,4.13,4.13,0,0,0-1.8.51L10.37,39a5,5,0,0,1,2.49-.66,2.66,2.66,0,0,1,1.73.52,1.72,1.72,0,0,1,.64,1.39A1.86,1.86,0,0,1,15,41.29Z"></path><rect x="13.02" y="19.58" width="21.98" height="1.52"></rect><rect x="10.49" y="21.35" width="5.05" height="1.52" transform="translate(-9.08 35.13) rotate(-90)"></rect><rect x="21.99" y="17.85" width="4.05" height="1.52" transform="translate(5.42 42.63) rotate(-90)"></rect><rect x="32.49" y="21.35" width="5.05" height="1.52" transform="translate(12.92 57.13) rotate(-90)"></rect></svg>