<svg xmlns:dc="http://purl.org/dc/elements/1.1/" xmlns:cc="http://creativecommons.org/ns#" xmlns:rdf="http://www.w3.org/1999/02/22-rdf-syntax-ns#" xmlns:svg="http://www.w3.org/2000/svg" xmlns="http://www.w3.org/2000/svg" xmlns:sodipodi="http://sodipodi.sourceforge.net/DTD/sodipodi-0.dtd" xmlns:inkscape="http://www.inkscape.org/namespaces/inkscape" version="1.1" width="48" height="48" viewBox="0 0 48 48" id="svg2" inkscape:version="0.48.5 r10040" sodipodi:docname="timbre_fiscale.svg" aria-hidden="true"><defs id="defs10"></defs><namedview pagecolor="#ffffff" bordercolor="#666666" borderopacity="1" objecttolerance="10" gridtolerance="10" guidetolerance="10" inkscape:pageopacity="0" inkscape:pageshadow="2" inkscape:window-width="640" inkscape:window-height="480" id="namedview8" showgrid="false" inkscape:zoom="5.3776042" inkscape:cx="24" inkscape:cy="24" inkscape:window-x="0" inkscape:window-y="0" inkscape:window-maximized="0" inkscape:current-layer="svg2"></namedview><path d="m 26.65888,8.2981892 c -0.214944,0.016185 -0.211957,0.00977 -0.416452,0.09229 -0.155236,0.063146 -0.322414,0.084203 -0.477651,0.1522022 -0.308981,0.1360096 -0.434365,0.323833 -0.589601,0.6282363 -0.0418,0.079344 -0.08657,0.2218262 -0.110461,0.3157379 -0.03134,0.119818 -0.07314,0.4080295 -0.07314,0.5148947 l 0.02688,0.294689 0.126876,0.260685 0.167178,0.226683 c 0.02835,0.02266 0.453768,0.1943 0.507505,0.212112 0.261214,0.08581 0.147773,0.0016 0.401525,0.147344 -0.946346,-0.09877 -1.3628,-0.08096 -2.294219,-0.02752 -0.332863,0.01942 -0.483623,0.01942 -0.819471,0.0761 -0.310474,0.05181 -0.635875,0.178108 -0.910523,0.341644 -0.300025,0.178109 -0.580645,0.396697 -0.823949,0.659001 -0.50452,0.547278 -0.76872,0.97312 -1.186664,1.583545 0.09403,0.06476 0.07463,0.0599 0.131353,0.160297 -0.06419,0.02752 -0.153744,0.05666 -0.210465,0.09391 -0.435857,0.293069 -0.849324,0.621761 -1.231446,0.994168 -0.120905,0.118193 -0.365701,0.391838 -0.449291,0.52461 l -0.131354,0.259066 0.003,0.283355 c 0.0089,0.0421 0.120906,0.273639 0.15076,0.331929 0.100005,0.1943 0.126875,0.257447 0.208972,0.461462 l -0.08806,0.200777 c -0.07016,0.158679 -0.367194,0.579662 -0.485114,0.749674 -0.146281,0.208873 -0.547806,0.75615 -0.634381,0.953689 -0.09254,0.212112 -0.09553,0.163535 -0.06419,0.275259 0.06419,0.226683 0.05523,0.202396 0.155237,0.412888 0.04329,0.09067 0.20748,0.364312 0.217928,0.403172 l -0.01045,0.296307 -0.132848,0.25259 c -0.70155,1.03303 -1.686706,1.824801 -2.510654,2.738011 -0.08509,0.09391 -0.155238,0.234779 -0.213451,0.352979 l 0.0089,0.02914 c 0.0209,0.068 0.113446,0.254209 0.147774,0.304404 0.05971,0.08581 0.506011,0.535944 0.57766,0.634713 l 0.101504,0.178108 0.0418,0.283354 -0.08061,0.278497 c -0.02239,0.05019 -0.140309,0.220207 -0.14628,0.249352 -0.0074,0.04534 0.07613,0.310879 0.09403,0.346501 0.03583,0.06962 0.135833,0.166774 0.167178,0.23316 l 0.07613,0.270401 -0.09105,0.273639 c -0.02538,0.05828 -0.131353,0.212112 -0.141803,0.25259 l 0.003,0.257448 0.222406,0.283354 c 0.15673,0.200777 0.119414,0.124676 0.194047,0.372408 0.0209,0.07124 0.0209,0.06476 0.0089,0.139248 -0.01343,0.08096 -0.01493,0.173251 -0.04926,0.247733 -0.126875,0.281736 -0.179119,0.391838 -0.273157,0.693003 -0.06568,0.210492 -0.09254,0.511657 -0.07016,0.733483 0.02239,0.221825 0.0209,0.220207 0.07314,0.437175 0.0194,0.07934 0.09255,0.280115 0.126876,0.343264 l 0.168671,0.229921 0.22987,0.152201 0.334356,0.07286 c 0.562733,0.163536 1.132928,0.275258 1.700141,0.416126 0.526909,0.131153 0.441827,0.165155 1.052324,0.215349 0.07164,0.0065 0.06717,-0.0032 0.119414,0.05019 0.12389,0.126295 0.122398,0.09068 0.143296,0.242875 0.05074,0.365932 0.07463,0.735102 0.128368,1.101033 0.301518,2.002909 1.441911,3.738656 1.809105,5.432304 h 3.386847 l 0.271664,-0.624998 c 0.25823,-0.566709 0.556763,-1.122083 0.907538,-1.628881 0.837383,-1.214377 1.886723,-2.143777 3.306243,-2.37046 0.671697,-0.106867 1.355336,-0.04048 2.013599,0.132771 l -0.0403,-0.124676 C 31.36227,33.498902 30.659226,32.401107 30.511453,32.114515 30.44129,31.976886 30.338305,31.7162 30.305466,31.565618 l -0.03583,-0.327073 0.01641,-0.296307 0.07613,-0.284974 c 0.02239,-0.04858 0.161207,-0.236397 0.205987,-0.291449 0.382122,-0.487369 0.76275,-0.974739 1.113525,-1.488014 0.305997,-0.445271 0.508998,-0.765866 0.795588,-1.222471 0.859773,-1.374672 1.682229,-3.115277 2.143461,-4.700442 0.255245,-0.877587 0.43138,-1.64831 0.547807,-2.564759 0.08806,-0.7011 0.128369,-1.343909 0.108962,-2.053103 -0.02538,-0.914829 -0.149267,-1.8248 -0.388092,-2.702389 C 34.475947,14.117477 33.716183,12.708803 32.67729,11.593196 32.250391,11.134972 31.792143,10.710751 31.293594,10.346439 29.927855,9.3474037 28.54565,8.7806962 26.949996,8.3742849 l -0.108961,-0.04858 c -0.06269,-0.014577 -0.122398,-0.032383 -0.186582,-0.027523 z" id="path4" inkscape:connector-curvature="0"></path><path d="m 6.5378142,1.143092 v 2.5971433 c 0.931421,0.1473441 1.6359559,0.8128214 1.6359559,1.6126897 0,0.7998683 -0.7045349,1.4653457 -1.6359559,1.6126898 v 2.0385309 c 1.0568035,0.053428 1.8926935,0.7691039 1.8926935,1.6418343 0,0.872732 -0.83589,1.583545 -1.8926935,1.638598 v 2.019101 c 1.015009,0.08743 1.8076127,0.786914 1.8076127,1.635357 0,0.848444 -0.7926037,1.544685 -1.8076127,1.63212 v 1.696886 c 0.043287,-0.0016 0.088063,-0.0032 0.131354,-0.0032 1.1165102,0 2.0195701,0.736721 2.0195701,1.643454 0,0.906733 -0.9030599,1.643454 -2.0195701,1.643454 -0.043287,0 -0.088061,0 -0.131354,-0.0032 v 2.09682 c 1.015009,0.08743 1.8076127,0.783678 1.8076127,1.632121 0,0.848443 -0.7926037,1.547923 -1.8076127,1.635358 v 2.274929 c 0.9732144,0.118193 1.7210379,0.799868 1.7210379,1.624024 0,0.824156 -0.7463307,1.509063 -1.7210379,1.627263 v 2.187493 c 1.0568035,0.05343 1.8926935,0.765867 1.8926935,1.638598 0,0.872731 -0.83589,1.586782 -1.8926935,1.641834 v 2.011005 c 1.0568035,0.05343 1.8926935,0.769104 1.8926935,1.641834 0,0.872732 -0.83589,1.586784 -1.8926935,1.641836 v 2.166444 h 1.9135914 c -0.01343,-0.09228 -0.022387,-0.182965 -0.022387,-0.278496 0,-1.041124 0.7896169,-1.88471 1.7643246,-1.88471 0.974708,0 1.764324,0.845204 1.764324,1.88471 0,0.09553 -0.0059,0.187824 -0.0194,0.278496 h 2.362882 c -0.01343,-0.09228 -0.02239,-0.182965 -0.02239,-0.278496 0,-1.041124 0.789618,-1.88471 1.764324,-1.88471 0.974708,0 1.764326,0.845204 1.764326,1.88471 0,0.09553 -0.0059,0.187824 -0.0194,0.278496 h 1.844928 c -0.01343,-0.09228 -0.0194,-0.182965 -0.0194,-0.278496 0,-1.041124 0.789617,-1.88471 1.764325,-1.88471 0.974708,0 1.764324,0.845204 1.764324,1.88471 0,0.09553 -0.0089,0.187824 -0.02239,0.278496 h 2.362882 c -0.01343,-0.09228 -0.0194,-0.182965 -0.0194,-0.278496 0,-1.041124 0.789618,-1.88471 1.764325,-1.88471 0.974707,0 1.764325,0.845204 1.764325,1.88471 0,0.09553 -0.0089,0.187824 -0.02239,0.278496 h 2.010615 c -0.0059,-0.06638 -0.0089,-0.132771 -0.0089,-0.200777 0,-1.041123 0.786633,-1.884708 1.76134,-1.884708 0.974708,0 1.764326,0.845204 1.764326,1.884708 0,0.068 -0.003,0.134392 -0.0089,0.200777 h 2.34497 c -0.0059,-0.06638 -0.0089,-0.132771 -0.0089,-0.200777 0,-1.041123 0.786632,-1.884708 1.761339,-1.884708 0.974707,0 1.764325,0.845204 1.764325,1.884708 0,0.068 -0.003,0.134392 -0.0089,0.200777 h 2.247946 v -2.17292 c -1.015009,-0.08743 -1.807611,-0.786915 -1.807611,-1.63536 0,-0.848442 0.792602,-1.547922 1.807611,-1.635357 v -2.181084 c -1.015009,-0.08743 -1.807611,-0.786915 -1.807611,-1.635359 0,-0.848443 0.792602,-1.547923 1.807611,-1.635358 v -1.942999 c -1.015009,-0.08743 -1.807611,-0.783677 -1.807611,-1.632121 0,-0.848443 0.792602,-1.547923 1.807611,-1.635358 v -2.184255 c -1.015009,-0.08743 -1.807611,-0.783677 -1.807611,-1.632121 0,-0.848443 0.792602,-1.547923 1.807611,-1.635358 v -1.862042 c -1.015009,-0.08743 -1.807611,-0.786914 -1.807611,-1.635357 0,-0.848444 0.792602,-1.547924 1.807611,-1.635359 v -2.181018 c -1.015009,-0.08743 -1.807611,-0.786914 -1.807611,-1.635357 0,-0.848444 0.792602,-1.547924 1.807611,-1.635358 v -2.04177 c -0.931419,-0.147344 -1.63297,-0.81444 -1.63297,-1.615927 0,-0.8014884 0.701551,-1.4653463 1.63297,-1.6126904 V 6.7308355 c -0.931541,-0.1473442 -1.633093,-0.8144401 -1.633093,-1.615928 0,-0.8014869 0.701552,-1.4653456 1.632971,-1.6126899 V 1.1463303 h -2.085247 c -0.126876,0.908353 -0.85828,1.6029749 -1.743428,1.6029749 -0.885147,0 -1.619536,-0.6962417 -1.746412,-1.6029749 h -2.362882 c -0.126877,0.908353 -0.858281,1.6029749 -1.743429,1.6029749 -0.885147,0 -1.619535,-0.6962417 -1.746412,-1.6029749 h -2.033004 c -0.158222,0.8678736 -0.871715,1.5220163 -1.729994,1.5220163 -0.85828,0 -1.573264,-0.6541427 -1.729994,-1.5220163 h -2.391242 c -0.158222,0.8678736 -0.871713,1.5220163 -1.729993,1.5220163 -0.85828,0 -1.573265,-0.6541427 -1.729994,-1.5220163 h -1.873288 c -0.158224,0.8678736 -0.871715,1.5220163 -1.729995,1.5220163 -0.85828,0 -1.57625,-0.6541427 -1.732979,-1.5220163 H 12.09207 c -0.158222,0.8678736 -0.874699,1.5220163 -1.73298,1.5220163 -0.8582791,0 -1.5732641,-0.6541427 -1.7299934,-1.5220163 H 6.5303511 z M 10.032133,4.1434071 H 39.283805 V 42.82044 H 10.032133 V 4.1434071 z" id="path6" inkscape:connector-curvature="0"></path></svg>