<svg xmlns="http://www.w3.org/2000/svg" id="VentesDoma" width="48" height="48" aria-hidden="true"><path d="M29.688 28.707l-.137-.103c2.124 2.193 4.477 4.016 7.04 5.452 1.442.713 3.43.33 4.546-.886.812-.877 1.62-1.762 2.426-2.648 1.146-1.25 1.486-3.425.76-4.987-1.958-3.976-4.22-7.79-6.707-11.35-2.487-3.56-5.246-6.94-8.244-10.034-1.143-1.14-3.098-1.273-4.446-.314l-2.84 2.055c-1.303.947-2.108 3.055-1.8 4.84.622 3.105 1.638 6.104 3.03 8.94l.06.098 1.405 2.51 1.077-.705c.32-.213.552-.555.637-.954.097-.408.042-.838-.15-1.19-1.594-2.955-2.738-6.11-3.388-9.324-.09-.557.262-1.373.608-1.624l2.83-2.045c.348-.25.96-.195 1.154.01 5.725 5.934 10.62 12.97 14.373 20.557.14.298.045.98-.25 1.307-.808.883-1.606 1.76-2.418 2.634-.295.324-1.076.526-1.496.324-2.66-1.496-5.112-3.487-7.283-5.924-.258-.297-.617-.457-.99-.446-.365.002-.712.177-.968.48l-.862 1.014z"></path><path d="M27.047 22.266c-.334-.056-.896.055-1.468.534L4.876 40.14c-.406.34-.71.786-.834 1.22-.07.252-.07.476 0 .582l.3.153c.334.056.896-.055 1.468-.534l20.702-17.34c.572-.478.828-1.05.878-1.428l-.043-.373-.3-.154zM3.94 45.143c-.864-.144-1.61-.628-2.092-1.365-.602-.915-.75-2.138-.404-3.352.296-1.056.938-2.037 1.806-2.765l20.702-17.337c1.873-1.573 4.465-1.456 5.588.26.484.735.68 1.68.55 2.66-.17 1.298-.88 2.56-1.952 3.453l-20.7 17.34c-1.07.896-2.344 1.298-3.496 1.105zM26.04 41.884c-.67 0-1.214.613-1.214 1.37v.673c0 .758.543 1.37 1.214 1.37h19.083c.67 0 1.214-.612 1.214-1.37v-.673c0-.757-.543-1.37-1.214-1.37H26.04z"></path><path d="M29.83 39.24c-.61 0-1.104.558-1.104 1.246v.924c0 .688.493 1.245 1.103 1.245h11.503c.61 0 1.102-.557 1.102-1.245v-.924c0-.688-.493-1.245-1.102-1.245H29.83z"></path></svg>